<?xml version="1.0" encoding="utf-8" standalone="no"?>
<!DOCTYPE svg PUBLIC "-//W3C//DTD SVG 1.1//EN"
  "http://www.w3.org/Graphics/SVG/1.1/DTD/svg11.dtd">
<svg xmlns:xlink="http://www.w3.org/1999/xlink" width="823.555799pt" height="449.561844pt" viewBox="0 0 823.555799 449.561844" xmlns="http://www.w3.org/2000/svg" version="1.1">
 <metadata>
  <rdf:RDF xmlns:dc="http://purl.org/dc/elements/1.1/" xmlns:cc="http://creativecommons.org/ns#" xmlns:rdf="http://www.w3.org/1999/02/22-rdf-syntax-ns#">
   <cc:Work>
    <dc:type rdf:resource="http://purl.org/dc/dcmitype/StillImage"/>
    <dc:date>2026-06-24T12:41:26.721335</dc:date>
    <dc:format>image/svg+xml</dc:format>
    <dc:creator>
     <cc:Agent>
      <dc:title>Matplotlib v3.10.0, https://matplotlib.org/</dc:title>
     </cc:Agent>
    </dc:creator>
   </cc:Work>
  </rdf:RDF>
 </metadata>
 <defs>
  <style type="text/css">*{stroke-linejoin: round; stroke-linecap: butt}</style>
 </defs>
 <g id="figure_1">
  <g id="patch_1">
   <path d="M 0 449.561844 
L 823.555799 449.561844 
L 823.555799 0 
L 0 0 
z
" style="fill: #ffffff"/>
  </g>
  <g id="axes_1">
   <g id="patch_2">
    <path d="M 53.899844 410.069969 
L 610.378338 410.069969 
L 610.378338 23.077969 
L 53.899844 23.077969 
z
" style="fill: #ffffff"/>
   </g>
   <g id="matplotlib.axis_1">
    <g id="xtick_1">
     <g id="line2d_1">
      <path d="M 74.510158 410.069969 
L 74.510158 23.077969 
" clip-path="url(#pd59b3493c3)" style="fill: none; stroke-dasharray: 0.8,1.32; stroke-dashoffset: 0; stroke: #b0b0b0; stroke-opacity: 0.65; stroke-width: 0.8"/>
     </g>
     <g id="line2d_2">
      <defs>
       <path id="mb5b42ff333" d="M 0 0 
L 0 3.5 
" style="stroke: #000000; stroke-width: 0.8"/>
      </defs>
      <g>
       <use xlink:href="#mb5b42ff333" x="74.510158" y="410.069969" style="stroke: #000000; stroke-width: 0.8"/>
      </g>
     </g>
     <g id="text_1">
      <!-- −4 -->
      <g transform="translate(66.77051 425.048328) scale(0.105 -0.105)">
       <defs>
        <path id="DejaVuSerif-2212" d="M 678 2259 
L 4684 2259 
L 4684 1753 
L 678 1753 
L 678 2259 
z
" transform="scale(0.015625)"/>
        <path id="DejaVuSerif-34" d="M 2234 1581 
L 2234 4063 
L 641 1581 
L 2234 1581 
z
M 3609 0 
L 1484 0 
L 1484 331 
L 2234 331 
L 2234 1247 
L 197 1247 
L 197 1588 
L 2241 4750 
L 2859 4750 
L 2859 1581 
L 3750 1581 
L 3750 1247 
L 2859 1247 
L 2859 331 
L 3609 331 
L 3609 0 
z
" transform="scale(0.015625)"/>
       </defs>
       <use xlink:href="#DejaVuSerif-2212"/>
       <use xlink:href="#DejaVuSerif-34" transform="translate(83.789062 0)"/>
      </g>
     </g>
    </g>
    <g id="xtick_2">
     <g id="line2d_3">
      <path d="M 177.561731 410.069969 
L 177.561731 23.077969 
" clip-path="url(#pd59b3493c3)" style="fill: none; stroke-dasharray: 0.8,1.32; stroke-dashoffset: 0; stroke: #b0b0b0; stroke-opacity: 0.65; stroke-width: 0.8"/>
     </g>
     <g id="line2d_4">
      <g>
       <use xlink:href="#mb5b42ff333" x="177.561731" y="410.069969" style="stroke: #000000; stroke-width: 0.8"/>
      </g>
     </g>
     <g id="text_2">
      <!-- −3 -->
      <g transform="translate(169.822083 425.048328) scale(0.105 -0.105)">
       <defs>
        <path id="DejaVuSerif-33" d="M 622 4469 
Q 988 4606 1323 4678 
Q 1659 4750 1953 4750 
Q 2638 4750 3022 4454 
Q 3406 4159 3406 3634 
Q 3406 3213 3140 2930 
Q 2875 2647 2388 2547 
Q 2963 2466 3280 2130 
Q 3597 1794 3597 1259 
Q 3597 606 3158 257 
Q 2719 -91 1894 -91 
Q 1528 -91 1179 -12 
Q 831 66 488 225 
L 488 1131 
L 838 1131 
Q 869 681 1141 450 
Q 1413 219 1906 219 
Q 2384 219 2661 495 
Q 2938 772 2938 1253 
Q 2938 1803 2653 2086 
Q 2369 2369 1819 2369 
L 1522 2369 
L 1522 2688 
L 1678 2688 
Q 2225 2688 2498 2914 
Q 2772 3141 2772 3597 
Q 2772 4006 2547 4223 
Q 2322 4441 1900 4441 
Q 1478 4441 1245 4241 
Q 1013 4041 972 3647 
L 622 3647 
L 622 4469 
z
" transform="scale(0.015625)"/>
       </defs>
       <use xlink:href="#DejaVuSerif-2212"/>
       <use xlink:href="#DejaVuSerif-33" transform="translate(83.789062 0)"/>
      </g>
     </g>
    </g>
    <g id="xtick_3">
     <g id="line2d_5">
      <path d="M 280.613304 410.069969 
L 280.613304 23.077969 
" clip-path="url(#pd59b3493c3)" style="fill: none; stroke-dasharray: 0.8,1.32; stroke-dashoffset: 0; stroke: #b0b0b0; stroke-opacity: 0.65; stroke-width: 0.8"/>
     </g>
     <g id="line2d_6">
      <g>
       <use xlink:href="#mb5b42ff333" x="280.613304" y="410.069969" style="stroke: #000000; stroke-width: 0.8"/>
      </g>
     </g>
     <g id="text_3">
      <!-- −2 -->
      <g transform="translate(272.873656 425.048328) scale(0.105 -0.105)">
       <defs>
        <path id="DejaVuSerif-32" d="M 819 3553 
L 469 3553 
L 469 4384 
Q 803 4563 1142 4656 
Q 1481 4750 1806 4750 
Q 2534 4750 2956 4397 
Q 3378 4044 3378 3438 
Q 3378 2753 2422 1800 
Q 2347 1728 2309 1691 
L 1131 513 
L 3078 513 
L 3078 1088 
L 3444 1088 
L 3444 0 
L 434 0 
L 434 341 
L 1850 1753 
Q 2319 2222 2519 2614 
Q 2719 3006 2719 3438 
Q 2719 3909 2473 4175 
Q 2228 4441 1797 4441 
Q 1350 4441 1106 4219 
Q 863 3997 819 3553 
z
" transform="scale(0.015625)"/>
       </defs>
       <use xlink:href="#DejaVuSerif-2212"/>
       <use xlink:href="#DejaVuSerif-32" transform="translate(83.789062 0)"/>
      </g>
     </g>
    </g>
    <g id="xtick_4">
     <g id="line2d_7">
      <path d="M 383.664878 410.069969 
L 383.664878 23.077969 
" clip-path="url(#pd59b3493c3)" style="fill: none; stroke-dasharray: 0.8,1.32; stroke-dashoffset: 0; stroke: #b0b0b0; stroke-opacity: 0.65; stroke-width: 0.8"/>
     </g>
     <g id="line2d_8">
      <g>
       <use xlink:href="#mb5b42ff333" x="383.664878" y="410.069969" style="stroke: #000000; stroke-width: 0.8"/>
      </g>
     </g>
     <g id="text_4">
      <!-- −1 -->
      <g transform="translate(375.925229 425.048328) scale(0.105 -0.105)">
       <defs>
        <path id="DejaVuSerif-31" d="M 909 0 
L 909 331 
L 1722 331 
L 1722 4213 
L 781 3603 
L 781 4013 
L 1919 4750 
L 2350 4750 
L 2350 331 
L 3163 331 
L 3163 0 
L 909 0 
z
" transform="scale(0.015625)"/>
       </defs>
       <use xlink:href="#DejaVuSerif-2212"/>
       <use xlink:href="#DejaVuSerif-31" transform="translate(83.789062 0)"/>
      </g>
     </g>
    </g>
    <g id="xtick_5">
     <g id="line2d_9">
      <path d="M 486.716451 410.069969 
L 486.716451 23.077969 
" clip-path="url(#pd59b3493c3)" style="fill: none; stroke-dasharray: 0.8,1.32; stroke-dashoffset: 0; stroke: #b0b0b0; stroke-opacity: 0.65; stroke-width: 0.8"/>
     </g>
     <g id="line2d_10">
      <g>
       <use xlink:href="#mb5b42ff333" x="486.716451" y="410.069969" style="stroke: #000000; stroke-width: 0.8"/>
      </g>
     </g>
     <g id="text_5">
      <!-- 0 -->
      <g transform="translate(483.376138 425.048328) scale(0.105 -0.105)">
       <defs>
        <path id="DejaVuSerif-30" d="M 2034 219 
Q 2513 219 2750 744 
Q 2988 1269 2988 2328 
Q 2988 3391 2750 3916 
Q 2513 4441 2034 4441 
Q 1556 4441 1318 3916 
Q 1081 3391 1081 2328 
Q 1081 1269 1318 744 
Q 1556 219 2034 219 
z
M 2034 -91 
Q 1275 -91 848 546 
Q 422 1184 422 2328 
Q 422 3475 848 4112 
Q 1275 4750 2034 4750 
Q 2797 4750 3222 4112 
Q 3647 3475 3647 2328 
Q 3647 1184 3222 546 
Q 2797 -91 2034 -91 
z
" transform="scale(0.015625)"/>
       </defs>
       <use xlink:href="#DejaVuSerif-30"/>
      </g>
     </g>
    </g>
    <g id="xtick_6">
     <g id="line2d_11">
      <path d="M 589.768024 410.069969 
L 589.768024 23.077969 
" clip-path="url(#pd59b3493c3)" style="fill: none; stroke-dasharray: 0.8,1.32; stroke-dashoffset: 0; stroke: #b0b0b0; stroke-opacity: 0.65; stroke-width: 0.8"/>
     </g>
     <g id="line2d_12">
      <g>
       <use xlink:href="#mb5b42ff333" x="589.768024" y="410.069969" style="stroke: #000000; stroke-width: 0.8"/>
      </g>
     </g>
     <g id="text_6">
      <!-- 1 -->
      <g transform="translate(586.427711 425.048328) scale(0.105 -0.105)">
       <use xlink:href="#DejaVuSerif-31"/>
      </g>
     </g>
    </g>
    <g id="text_7">
     <!-- $E_b/N_0$ (dB) -->
     <g transform="translate(302.584091 439.970203) scale(0.115 -0.115)">
      <defs>
       <path id="DejaVuSans-Oblique-45" d="M 1081 4666 
L 4031 4666 
L 3928 4134 
L 1606 4134 
L 1338 2753 
L 3566 2753 
L 3463 2222 
L 1234 2222 
L 909 531 
L 3284 531 
L 3181 0 
L 172 0 
L 1081 4666 
z
" transform="scale(0.015625)"/>
       <path id="DejaVuSans-Oblique-62" d="M 3169 2138 
Q 3169 2591 2961 2847 
Q 2753 3103 2388 3103 
Q 2122 3103 1889 2973 
Q 1656 2844 1484 2597 
Q 1303 2338 1198 1995 
Q 1094 1653 1094 1313 
Q 1094 881 1298 636 
Q 1503 391 1863 391 
Q 2134 391 2365 517 
Q 2597 644 2772 891 
Q 2950 1147 3059 1487 
Q 3169 1828 3169 2138 
z
M 1381 2969 
Q 1594 3256 1914 3420 
Q 2234 3584 2584 3584 
Q 3122 3584 3439 3221 
Q 3756 2859 3756 2241 
Q 3756 1734 3570 1259 
Q 3384 784 3041 416 
Q 2816 172 2522 40 
Q 2228 -91 1906 -91 
Q 1566 -91 1316 65 
Q 1066 222 909 531 
L 806 0 
L 231 0 
L 1178 4863 
L 1753 4863 
L 1381 2969 
z
" transform="scale(0.015625)"/>
       <path id="DejaVuSans-2f" d="M 1625 4666 
L 2156 4666 
L 531 -594 
L 0 -594 
L 1625 4666 
z
" transform="scale(0.015625)"/>
       <path id="DejaVuSans-Oblique-4e" d="M 1081 4666 
L 1931 4666 
L 3219 666 
L 4000 4666 
L 4616 4666 
L 3706 0 
L 2853 0 
L 1569 4025 
L 788 0 
L 172 0 
L 1081 4666 
z
" transform="scale(0.015625)"/>
       <path id="DejaVuSans-30" d="M 2034 4250 
Q 1547 4250 1301 3770 
Q 1056 3291 1056 2328 
Q 1056 1369 1301 889 
Q 1547 409 2034 409 
Q 2525 409 2770 889 
Q 3016 1369 3016 2328 
Q 3016 3291 2770 3770 
Q 2525 4250 2034 4250 
z
M 2034 4750 
Q 2819 4750 3233 4129 
Q 3647 3509 3647 2328 
Q 3647 1150 3233 529 
Q 2819 -91 2034 -91 
Q 1250 -91 836 529 
Q 422 1150 422 2328 
Q 422 3509 836 4129 
Q 1250 4750 2034 4750 
z
" transform="scale(0.015625)"/>
       <path id="DejaVuSerif-20" transform="scale(0.015625)"/>
       <path id="DejaVuSerif-28" d="M 2041 -997 
Q 1281 -656 893 83 
Q 506 822 506 1931 
Q 506 3044 893 3783 
Q 1281 4522 2041 4863 
L 2041 4556 
Q 1559 4225 1350 3623 
Q 1141 3022 1141 1931 
Q 1141 844 1350 242 
Q 1559 -359 2041 -691 
L 2041 -997 
z
" transform="scale(0.015625)"/>
       <path id="DejaVuSerif-64" d="M 3359 331 
L 3909 331 
L 3909 0 
L 2784 0 
L 2784 519 
Q 2616 206 2355 57 
Q 2094 -91 1709 -91 
Q 1097 -91 708 395 
Q 319 881 319 1663 
Q 319 2444 706 2928 
Q 1094 3413 1709 3413 
Q 2094 3413 2355 3264 
Q 2616 3116 2784 2803 
L 2784 4531 
L 2241 4531 
L 2241 4863 
L 3359 4863 
L 3359 331 
z
M 2784 1497 
L 2784 1825 
Q 2784 2422 2554 2737 
Q 2325 3053 1888 3053 
Q 1444 3053 1217 2703 
Q 991 2353 991 1663 
Q 991 975 1217 622 
Q 1444 269 1888 269 
Q 2325 269 2554 583 
Q 2784 897 2784 1497 
z
" transform="scale(0.015625)"/>
       <path id="DejaVuSerif-42" d="M 1581 331 
L 2516 331 
Q 3078 331 3337 575 
Q 3597 819 3597 1350 
Q 3597 1878 3339 2120 
Q 3081 2363 2516 2363 
L 1581 2363 
L 1581 331 
z
M 1581 2694 
L 2375 2694 
Q 2888 2694 3123 2891 
Q 3359 3088 3359 3513 
Q 3359 3941 3123 4136 
Q 2888 4331 2375 4331 
L 1581 4331 
L 1581 2694 
z
M 353 0 
L 353 331 
L 947 331 
L 947 4331 
L 353 4331 
L 353 4666 
L 2656 4666 
Q 3363 4666 3720 4377 
Q 4078 4088 4078 3513 
Q 4078 3097 3829 2850 
Q 3581 2603 3103 2547 
Q 3697 2472 4005 2167 
Q 4313 1863 4313 1350 
Q 4313 656 3875 328 
Q 3438 0 2509 0 
L 353 0 
z
" transform="scale(0.015625)"/>
       <path id="DejaVuSerif-29" d="M 453 -997 
L 453 -691 
Q 934 -359 1145 242 
Q 1356 844 1356 1931 
Q 1356 3022 1145 3623 
Q 934 4225 453 4556 
L 453 4863 
Q 1216 4522 1603 3783 
Q 1991 3044 1991 1931 
Q 1991 822 1603 83 
Q 1216 -656 453 -997 
z
" transform="scale(0.015625)"/>
      </defs>
      <use xlink:href="#DejaVuSans-Oblique-45" transform="translate(0 0.015625)"/>
      <use xlink:href="#DejaVuSans-Oblique-62" transform="translate(63.183594 -16.390625) scale(0.7)"/>
      <use xlink:href="#DejaVuSans-2f" transform="translate(110.351562 0.015625)"/>
      <use xlink:href="#DejaVuSans-Oblique-4e" transform="translate(144.042969 0.015625)"/>
      <use xlink:href="#DejaVuSans-30" transform="translate(218.847656 -16.390625) scale(0.7)"/>
      <use xlink:href="#DejaVuSerif-20" transform="translate(266.118164 0.015625)"/>
      <use xlink:href="#DejaVuSerif-28" transform="translate(297.905273 0.015625)"/>
      <use xlink:href="#DejaVuSerif-64" transform="translate(336.918945 0.015625)"/>
      <use xlink:href="#DejaVuSerif-42" transform="translate(400.932617 0.015625)"/>
      <use xlink:href="#DejaVuSerif-29" transform="translate(474.418945 0.015625)"/>
     </g>
    </g>
   </g>
   <g id="matplotlib.axis_2">
    <g id="ytick_1">
     <g id="line2d_13">
      <path d="M 53.899844 346.412321 
L 610.378338 346.412321 
" clip-path="url(#pd59b3493c3)" style="fill: none; stroke-dasharray: 0.8,1.32; stroke-dashoffset: 0; stroke: #b0b0b0; stroke-opacity: 0.65; stroke-width: 0.8"/>
     </g>
     <g id="line2d_14">
      <defs>
       <path id="m1dbdfb6830" d="M 0 0 
L -3.5 0 
" style="stroke: #000000; stroke-width: 0.8"/>
      </defs>
      <g>
       <use xlink:href="#m1dbdfb6830" x="53.899844" y="346.412321" style="stroke: #000000; stroke-width: 0.8"/>
      </g>
     </g>
     <g id="text_8">
      <!-- $\mathdefault{10^{-4}}$ -->
      <g transform="translate(22.329844 350.4015) scale(0.105 -0.105)">
       <use xlink:href="#DejaVuSerif-31" transform="translate(0 0.7125)"/>
       <use xlink:href="#DejaVuSerif-30" transform="translate(63.623047 0.7125)"/>
       <use xlink:href="#DejaVuSerif-2212" transform="translate(128.154453 37.046875) scale(0.7)"/>
       <use xlink:href="#DejaVuSerif-34" transform="translate(186.806797 37.046875) scale(0.7)"/>
      </g>
     </g>
    </g>
    <g id="ytick_2">
     <g id="line2d_15">
      <path d="M 53.899844 248.886388 
L 610.378338 248.886388 
" clip-path="url(#pd59b3493c3)" style="fill: none; stroke-dasharray: 0.8,1.32; stroke-dashoffset: 0; stroke: #b0b0b0; stroke-opacity: 0.65; stroke-width: 0.8"/>
     </g>
     <g id="line2d_16">
      <g>
       <use xlink:href="#m1dbdfb6830" x="53.899844" y="248.886388" style="stroke: #000000; stroke-width: 0.8"/>
      </g>
     </g>
     <g id="text_9">
      <!-- $\mathdefault{10^{-3}}$ -->
      <g transform="translate(22.329844 252.875567) scale(0.105 -0.105)">
       <use xlink:href="#DejaVuSerif-31" transform="translate(0 0.7125)"/>
       <use xlink:href="#DejaVuSerif-30" transform="translate(63.623047 0.7125)"/>
       <use xlink:href="#DejaVuSerif-2212" transform="translate(128.154453 37.046875) scale(0.7)"/>
       <use xlink:href="#DejaVuSerif-33" transform="translate(186.806797 37.046875) scale(0.7)"/>
      </g>
     </g>
    </g>
    <g id="ytick_3">
     <g id="line2d_17">
      <path d="M 53.899844 151.360454 
L 610.378338 151.360454 
" clip-path="url(#pd59b3493c3)" style="fill: none; stroke-dasharray: 0.8,1.32; stroke-dashoffset: 0; stroke: #b0b0b0; stroke-opacity: 0.65; stroke-width: 0.8"/>
     </g>
     <g id="line2d_18">
      <g>
       <use xlink:href="#m1dbdfb6830" x="53.899844" y="151.360454" style="stroke: #000000; stroke-width: 0.8"/>
      </g>
     </g>
     <g id="text_10">
      <!-- $\mathdefault{10^{-2}}$ -->
      <g transform="translate(22.329844 155.349634) scale(0.105 -0.105)">
       <use xlink:href="#DejaVuSerif-31" transform="translate(0 0.7125)"/>
       <use xlink:href="#DejaVuSerif-30" transform="translate(63.623047 0.7125)"/>
       <use xlink:href="#DejaVuSerif-2212" transform="translate(128.154453 37.046875) scale(0.7)"/>
       <use xlink:href="#DejaVuSerif-32" transform="translate(186.806797 37.046875) scale(0.7)"/>
      </g>
     </g>
    </g>
    <g id="ytick_4">
     <g id="line2d_19">
      <path d="M 53.899844 53.834521 
L 610.378338 53.834521 
" clip-path="url(#pd59b3493c3)" style="fill: none; stroke-dasharray: 0.8,1.32; stroke-dashoffset: 0; stroke: #b0b0b0; stroke-opacity: 0.65; stroke-width: 0.8"/>
     </g>
     <g id="line2d_20">
      <g>
       <use xlink:href="#m1dbdfb6830" x="53.899844" y="53.834521" style="stroke: #000000; stroke-width: 0.8"/>
      </g>
     </g>
     <g id="text_11">
      <!-- $\mathdefault{10^{-1}}$ -->
      <g transform="translate(22.329844 57.823701) scale(0.105 -0.105)">
       <use xlink:href="#DejaVuSerif-31" transform="translate(0 0.7125)"/>
       <use xlink:href="#DejaVuSerif-30" transform="translate(63.623047 0.7125)"/>
       <use xlink:href="#DejaVuSerif-2212" transform="translate(128.154453 37.046875) scale(0.7)"/>
       <use xlink:href="#DejaVuSerif-31" transform="translate(186.806797 37.046875) scale(0.7)"/>
      </g>
     </g>
    </g>
    <g id="ytick_5">
     <g id="line2d_21">
      <defs>
       <path id="ma56501a3c6" d="M 0 0 
L -2 0 
" style="stroke: #000000; stroke-width: 0.6"/>
      </defs>
      <g>
       <use xlink:href="#ma56501a3c6" x="53.899844" y="397.406558" style="stroke: #000000; stroke-width: 0.6"/>
      </g>
     </g>
    </g>
    <g id="ytick_6">
     <g id="line2d_22">
      <g>
       <use xlink:href="#ma56501a3c6" x="53.899844" y="385.221791" style="stroke: #000000; stroke-width: 0.6"/>
      </g>
     </g>
    </g>
    <g id="ytick_7">
     <g id="line2d_23">
      <g>
       <use xlink:href="#ma56501a3c6" x="53.899844" y="375.770552" style="stroke: #000000; stroke-width: 0.6"/>
      </g>
     </g>
    </g>
    <g id="ytick_8">
     <g id="line2d_24">
      <g>
       <use xlink:href="#ma56501a3c6" x="53.899844" y="368.048327" style="stroke: #000000; stroke-width: 0.6"/>
      </g>
     </g>
    </g>
    <g id="ytick_9">
     <g id="line2d_25">
      <g>
       <use xlink:href="#ma56501a3c6" x="53.899844" y="361.519279" style="stroke: #000000; stroke-width: 0.6"/>
      </g>
     </g>
    </g>
    <g id="ytick_10">
     <g id="line2d_26">
      <g>
       <use xlink:href="#ma56501a3c6" x="53.899844" y="355.86356" style="stroke: #000000; stroke-width: 0.6"/>
      </g>
     </g>
    </g>
    <g id="ytick_11">
     <g id="line2d_27">
      <g>
       <use xlink:href="#ma56501a3c6" x="53.899844" y="350.874863" style="stroke: #000000; stroke-width: 0.6"/>
      </g>
     </g>
    </g>
    <g id="ytick_12">
     <g id="line2d_28">
      <g>
       <use xlink:href="#ma56501a3c6" x="53.899844" y="317.05409" style="stroke: #000000; stroke-width: 0.6"/>
      </g>
     </g>
    </g>
    <g id="ytick_13">
     <g id="line2d_29">
      <g>
       <use xlink:href="#ma56501a3c6" x="53.899844" y="299.880625" style="stroke: #000000; stroke-width: 0.6"/>
      </g>
     </g>
    </g>
    <g id="ytick_14">
     <g id="line2d_30">
      <g>
       <use xlink:href="#ma56501a3c6" x="53.899844" y="287.695858" style="stroke: #000000; stroke-width: 0.6"/>
      </g>
     </g>
    </g>
    <g id="ytick_15">
     <g id="line2d_31">
      <g>
       <use xlink:href="#ma56501a3c6" x="53.899844" y="278.244619" style="stroke: #000000; stroke-width: 0.6"/>
      </g>
     </g>
    </g>
    <g id="ytick_16">
     <g id="line2d_32">
      <g>
       <use xlink:href="#ma56501a3c6" x="53.899844" y="270.522394" style="stroke: #000000; stroke-width: 0.6"/>
      </g>
     </g>
    </g>
    <g id="ytick_17">
     <g id="line2d_33">
      <g>
       <use xlink:href="#ma56501a3c6" x="53.899844" y="263.993346" style="stroke: #000000; stroke-width: 0.6"/>
      </g>
     </g>
    </g>
    <g id="ytick_18">
     <g id="line2d_34">
      <g>
       <use xlink:href="#ma56501a3c6" x="53.899844" y="258.337627" style="stroke: #000000; stroke-width: 0.6"/>
      </g>
     </g>
    </g>
    <g id="ytick_19">
     <g id="line2d_35">
      <g>
       <use xlink:href="#ma56501a3c6" x="53.899844" y="253.34893" style="stroke: #000000; stroke-width: 0.6"/>
      </g>
     </g>
    </g>
    <g id="ytick_20">
     <g id="line2d_36">
      <g>
       <use xlink:href="#ma56501a3c6" x="53.899844" y="219.528156" style="stroke: #000000; stroke-width: 0.6"/>
      </g>
     </g>
    </g>
    <g id="ytick_21">
     <g id="line2d_37">
      <g>
       <use xlink:href="#ma56501a3c6" x="53.899844" y="202.354692" style="stroke: #000000; stroke-width: 0.6"/>
      </g>
     </g>
    </g>
    <g id="ytick_22">
     <g id="line2d_38">
      <g>
       <use xlink:href="#ma56501a3c6" x="53.899844" y="190.169925" style="stroke: #000000; stroke-width: 0.6"/>
      </g>
     </g>
    </g>
    <g id="ytick_23">
     <g id="line2d_39">
      <g>
       <use xlink:href="#ma56501a3c6" x="53.899844" y="180.718686" style="stroke: #000000; stroke-width: 0.6"/>
      </g>
     </g>
    </g>
    <g id="ytick_24">
     <g id="line2d_40">
      <g>
       <use xlink:href="#ma56501a3c6" x="53.899844" y="172.996461" style="stroke: #000000; stroke-width: 0.6"/>
      </g>
     </g>
    </g>
    <g id="ytick_25">
     <g id="line2d_41">
      <g>
       <use xlink:href="#ma56501a3c6" x="53.899844" y="166.467413" style="stroke: #000000; stroke-width: 0.6"/>
      </g>
     </g>
    </g>
    <g id="ytick_26">
     <g id="line2d_42">
      <g>
       <use xlink:href="#ma56501a3c6" x="53.899844" y="160.811694" style="stroke: #000000; stroke-width: 0.6"/>
      </g>
     </g>
    </g>
    <g id="ytick_27">
     <g id="line2d_43">
      <g>
       <use xlink:href="#ma56501a3c6" x="53.899844" y="155.822996" style="stroke: #000000; stroke-width: 0.6"/>
      </g>
     </g>
    </g>
    <g id="ytick_28">
     <g id="line2d_44">
      <g>
       <use xlink:href="#ma56501a3c6" x="53.899844" y="122.002223" style="stroke: #000000; stroke-width: 0.6"/>
      </g>
     </g>
    </g>
    <g id="ytick_29">
     <g id="line2d_45">
      <g>
       <use xlink:href="#ma56501a3c6" x="53.899844" y="104.828759" style="stroke: #000000; stroke-width: 0.6"/>
      </g>
     </g>
    </g>
    <g id="ytick_30">
     <g id="line2d_46">
      <g>
       <use xlink:href="#ma56501a3c6" x="53.899844" y="92.643992" style="stroke: #000000; stroke-width: 0.6"/>
      </g>
     </g>
    </g>
    <g id="ytick_31">
     <g id="line2d_47">
      <g>
       <use xlink:href="#ma56501a3c6" x="53.899844" y="83.192753" style="stroke: #000000; stroke-width: 0.6"/>
      </g>
     </g>
    </g>
    <g id="ytick_32">
     <g id="line2d_48">
      <g>
       <use xlink:href="#ma56501a3c6" x="53.899844" y="75.470528" style="stroke: #000000; stroke-width: 0.6"/>
      </g>
     </g>
    </g>
    <g id="ytick_33">
     <g id="line2d_49">
      <g>
       <use xlink:href="#ma56501a3c6" x="53.899844" y="68.941479" style="stroke: #000000; stroke-width: 0.6"/>
      </g>
     </g>
    </g>
    <g id="ytick_34">
     <g id="line2d_50">
      <g>
       <use xlink:href="#ma56501a3c6" x="53.899844" y="63.285761" style="stroke: #000000; stroke-width: 0.6"/>
      </g>
     </g>
    </g>
    <g id="ytick_35">
     <g id="line2d_51">
      <g>
       <use xlink:href="#ma56501a3c6" x="53.899844" y="58.297063" style="stroke: #000000; stroke-width: 0.6"/>
      </g>
     </g>
    </g>
    <g id="ytick_36">
     <g id="line2d_52">
      <g>
       <use xlink:href="#ma56501a3c6" x="53.899844" y="24.47629" style="stroke: #000000; stroke-width: 0.6"/>
      </g>
     </g>
    </g>
    <g id="text_12">
     <!-- BLER -->
     <g transform="translate(15.938203 233.14475) rotate(-90) scale(0.115 -0.115)">
      <defs>
       <path id="DejaVuSerif-4c" d="M 353 0 
L 353 331 
L 947 331 
L 947 4331 
L 353 4331 
L 353 4666 
L 2175 4666 
L 2175 4331 
L 1581 4331 
L 1581 384 
L 3713 384 
L 3713 1166 
L 4097 1166 
L 4097 0 
L 353 0 
z
" transform="scale(0.015625)"/>
       <path id="DejaVuSerif-45" d="M 353 0 
L 353 331 
L 947 331 
L 947 4331 
L 353 4331 
L 353 4666 
L 4109 4666 
L 4109 3628 
L 3725 3628 
L 3725 4281 
L 1581 4281 
L 1581 2719 
L 3109 2719 
L 3109 3303 
L 3494 3303 
L 3494 1753 
L 3109 1753 
L 3109 2338 
L 1581 2338 
L 1581 384 
L 3775 384 
L 3775 1038 
L 4159 1038 
L 4159 0 
L 353 0 
z
" transform="scale(0.015625)"/>
       <path id="DejaVuSerif-52" d="M 3066 2316 
Q 3284 2256 3442 2114 
Q 3600 1972 3725 1716 
L 4403 331 
L 4972 331 
L 4972 0 
L 3872 0 
L 3144 1484 
Q 2934 1916 2759 2042 
Q 2584 2169 2278 2169 
L 1581 2169 
L 1581 331 
L 2241 331 
L 2241 0 
L 353 0 
L 353 331 
L 947 331 
L 947 4331 
L 353 4331 
L 353 4666 
L 2719 4666 
Q 3400 4666 3770 4341 
Q 4141 4016 4141 3419 
Q 4141 2938 3870 2661 
Q 3600 2384 3066 2316 
z
M 1581 2503 
L 2503 2503 
Q 2975 2503 3200 2726 
Q 3425 2950 3425 3419 
Q 3425 3888 3200 4109 
Q 2975 4331 2503 4331 
L 1581 4331 
L 1581 2503 
z
" transform="scale(0.015625)"/>
      </defs>
      <use xlink:href="#DejaVuSerif-42"/>
      <use xlink:href="#DejaVuSerif-4c" transform="translate(73.486328 0)"/>
      <use xlink:href="#DejaVuSerif-45" transform="translate(139.892578 0)"/>
      <use xlink:href="#DejaVuSerif-52" transform="translate(212.890625 0)"/>
     </g>
    </g>
   </g>
   <g id="line2d_53">
    <path d="M 74.510158 49.637529 
L 177.561731 102.748249 
L 280.613304 167.070454 
L 383.664878 232.822146 
L 486.716451 305.448154 
L 589.768024 389.148496 
" clip-path="url(#pd59b3493c3)" style="fill: none; stroke: #1f77b4; stroke-width: 2; stroke-linecap: square"/>
   </g>
   <g id="line2d_54">
    <path d="M 74.510158 41.484628 
L 177.561731 90.388822 
L 280.613304 153.316805 
L 383.664878 224.682627 
L 486.716451 298.646996 
L 589.768024 380.925023 
" clip-path="url(#pd59b3493c3)" style="fill: none; stroke: #ff7f0e; stroke-width: 2; stroke-linecap: square"/>
   </g>
   <g id="line2d_55">
    <path d="M 74.510158 43.509952 
L 177.561731 99.384977 
L 280.613304 157.779347 
L 383.664878 231.883553 
L 486.716451 302.800106 
L 589.768024 380.925023 
" clip-path="url(#pd59b3493c3)" style="fill: none; stroke: #2ca02c; stroke-width: 2; stroke-linecap: square"/>
   </g>
   <g id="line2d_56">
    <path d="M 74.510158 40.668514 
L 177.561731 104.172079 
L 280.613304 145.274918 
L 383.664878 219.339492 
L 486.716451 296.422596 
L 589.768024 376.214064 
" clip-path="url(#pd59b3493c3)" style="fill: none; stroke: #d62728; stroke-width: 2; stroke-linecap: square"/>
   </g>
   <g id="line2d_57">
    <path d="M 74.510158 53.286584 
L 177.561731 112.772159 
L 280.613304 169.116986 
L 383.664878 231.582399 
L 486.716451 304.596704 
L 589.768024 392.287337 
" clip-path="url(#pd59b3493c3)" style="fill: none; stroke: #9467bd; stroke-width: 2; stroke-linecap: square"/>
   </g>
   <g id="line2d_58">
    <path d="M 74.510158 48.165017 
L 177.561731 106.785109 
L 280.613304 174.569505 
L 383.664878 235.238155 
L 486.716451 305.01815 
L 589.768024 392.479423 
" clip-path="url(#pd59b3493c3)" style="fill: none; stroke: #8c564b; stroke-width: 2; stroke-linecap: square"/>
   </g>
   <g id="line2d_59">
    <path d="M 74.510158 44.648831 
L 177.561731 106.021936 
L 280.613304 161.464711 
L 383.664878 228.756142 
L 486.716451 307.163934 
L 589.768024 380.925023 
" clip-path="url(#pd59b3493c3)" style="fill: none; stroke: #e377c2; stroke-width: 2; stroke-linecap: square"/>
   </g>
   <g id="patch_3">
    <path d="M 53.899844 410.069969 
L 53.899844 23.077969 
" style="fill: none; stroke: #000000; stroke-width: 0.8; stroke-linejoin: miter; stroke-linecap: square"/>
   </g>
   <g id="patch_4">
    <path d="M 610.378338 410.069969 
L 610.378338 23.077969 
" style="fill: none; stroke: #000000; stroke-width: 0.8; stroke-linejoin: miter; stroke-linecap: square"/>
   </g>
   <g id="patch_5">
    <path d="M 53.899844 410.069969 
L 610.378338 410.069969 
" style="fill: none; stroke: #000000; stroke-width: 0.8; stroke-linejoin: miter; stroke-linecap: square"/>
   </g>
   <g id="patch_6">
    <path d="M 53.899844 23.077969 
L 610.378338 23.077969 
" style="fill: none; stroke: #000000; stroke-width: 0.8; stroke-linejoin: miter; stroke-linecap: square"/>
   </g>
   <g id="text_13">
    <!-- UPAIR variants (3 users) -->
    <g transform="translate(250.765185 17.077969) scale(0.13 -0.13)">
     <defs>
      <path id="DejaVuSerif-55" d="M 897 4331 
L 300 4331 
L 300 4666 
L 2125 4666 
L 2125 4331 
L 1528 4331 
L 1528 1919 
Q 1528 1025 1820 672 
Q 2113 319 2828 319 
Q 3544 319 3836 672 
Q 4128 1025 4128 1919 
L 4128 4331 
L 3531 4331 
L 3531 4666 
L 5106 4666 
L 5106 4331 
L 4513 4331 
L 4513 1856 
Q 4513 791 4103 350 
Q 3694 -91 2713 -91 
Q 1731 -91 1314 353 
Q 897 797 897 1856 
L 897 4331 
z
" transform="scale(0.015625)"/>
      <path id="DejaVuSerif-50" d="M 1581 2375 
L 2406 2375 
Q 2872 2375 3115 2626 
Q 3359 2878 3359 3353 
Q 3359 3831 3115 4081 
Q 2872 4331 2406 4331 
L 1581 4331 
L 1581 2375 
z
M 353 0 
L 353 331 
L 947 331 
L 947 4331 
L 353 4331 
L 353 4666 
L 2559 4666 
Q 3259 4666 3668 4311 
Q 4078 3956 4078 3353 
Q 4078 2753 3668 2397 
Q 3259 2041 2559 2041 
L 1581 2041 
L 1581 331 
L 2303 331 
L 2303 0 
L 353 0 
z
" transform="scale(0.015625)"/>
      <path id="DejaVuSerif-41" d="M 1281 1691 
L 2994 1691 
L 2138 3909 
L 1281 1691 
z
M -38 0 
L -38 331 
L 372 331 
L 2034 4666 
L 2559 4666 
L 4225 331 
L 4684 331 
L 4684 0 
L 2988 0 
L 2988 331 
L 3506 331 
L 3116 1356 
L 1153 1356 
L 763 331 
L 1275 331 
L 1275 0 
L -38 0 
z
" transform="scale(0.015625)"/>
      <path id="DejaVuSerif-49" d="M 1581 331 
L 2175 331 
L 2175 0 
L 353 0 
L 353 331 
L 947 331 
L 947 4331 
L 353 4331 
L 353 4666 
L 2175 4666 
L 2175 4331 
L 1581 4331 
L 1581 331 
z
" transform="scale(0.015625)"/>
      <path id="DejaVuSerif-76" d="M 1581 0 
L 359 2988 
L -19 2988 
L -19 3322 
L 1509 3322 
L 1509 2988 
L 978 2988 
L 1913 703 
L 2847 2988 
L 2350 2988 
L 2350 3322 
L 3597 3322 
L 3597 2988 
L 3225 2988 
L 2003 0 
L 1581 0 
z
" transform="scale(0.015625)"/>
      <path id="DejaVuSerif-61" d="M 2547 1044 
L 2547 1747 
L 1806 1747 
Q 1378 1747 1168 1562 
Q 959 1378 959 997 
Q 959 650 1171 447 
Q 1384 244 1747 244 
Q 2106 244 2326 466 
Q 2547 688 2547 1044 
z
M 3122 2075 
L 3122 331 
L 3634 331 
L 3634 0 
L 2547 0 
L 2547 359 
Q 2356 128 2106 18 
Q 1856 -91 1522 -91 
Q 969 -91 644 203 
Q 319 497 319 997 
Q 319 1513 691 1797 
Q 1063 2081 1741 2081 
L 2547 2081 
L 2547 2309 
Q 2547 2688 2317 2895 
Q 2088 3103 1672 3103 
Q 1328 3103 1125 2947 
Q 922 2791 872 2484 
L 575 2484 
L 575 3156 
Q 875 3284 1158 3348 
Q 1441 3413 1709 3413 
Q 2400 3413 2761 3070 
Q 3122 2728 3122 2075 
z
" transform="scale(0.015625)"/>
      <path id="DejaVuSerif-72" d="M 3059 3328 
L 3059 2497 
L 2728 2497 
Q 2713 2744 2591 2866 
Q 2469 2988 2234 2988 
Q 1809 2988 1582 2694 
Q 1356 2400 1356 1850 
L 1356 331 
L 2022 331 
L 2022 0 
L 263 0 
L 263 331 
L 781 331 
L 781 2994 
L 231 2994 
L 231 3322 
L 1356 3322 
L 1356 2731 
Q 1525 3078 1790 3245 
Q 2056 3413 2438 3413 
Q 2578 3413 2733 3391 
Q 2888 3369 3059 3328 
z
" transform="scale(0.015625)"/>
      <path id="DejaVuSerif-69" d="M 622 4353 
Q 622 4497 726 4603 
Q 831 4709 978 4709 
Q 1122 4709 1226 4603 
Q 1331 4497 1331 4353 
Q 1331 4206 1228 4103 
Q 1125 4000 978 4000 
Q 831 4000 726 4103 
Q 622 4206 622 4353 
z
M 1356 331 
L 1900 331 
L 1900 0 
L 231 0 
L 231 331 
L 781 331 
L 781 2988 
L 231 2988 
L 231 3322 
L 1356 3322 
L 1356 331 
z
" transform="scale(0.015625)"/>
      <path id="DejaVuSerif-6e" d="M 263 0 
L 263 331 
L 781 331 
L 781 2988 
L 231 2988 
L 231 3322 
L 1356 3322 
L 1356 2731 
Q 1516 3069 1770 3241 
Q 2025 3413 2363 3413 
Q 2913 3413 3172 3097 
Q 3431 2781 3431 2113 
L 3431 331 
L 3944 331 
L 3944 0 
L 2356 0 
L 2356 331 
L 2853 331 
L 2853 1931 
Q 2853 2541 2703 2767 
Q 2553 2994 2175 2994 
Q 1775 2994 1565 2701 
Q 1356 2409 1356 1850 
L 1356 331 
L 1856 331 
L 1856 0 
L 263 0 
z
" transform="scale(0.015625)"/>
      <path id="DejaVuSerif-74" d="M 691 2988 
L 184 2988 
L 184 3322 
L 691 3322 
L 691 4353 
L 1269 4353 
L 1269 3322 
L 2350 3322 
L 2350 2988 
L 1269 2988 
L 1269 878 
Q 1269 456 1350 337 
Q 1431 219 1650 219 
Q 1875 219 1978 351 
Q 2081 484 2088 781 
L 2522 781 
Q 2497 328 2275 118 
Q 2053 -91 1600 -91 
Q 1103 -91 897 129 
Q 691 350 691 878 
L 691 2988 
z
" transform="scale(0.015625)"/>
      <path id="DejaVuSerif-73" d="M 359 184 
L 359 959 
L 691 959 
Q 703 588 923 403 
Q 1144 219 1575 219 
Q 1963 219 2166 364 
Q 2369 509 2369 788 
Q 2369 1006 2220 1140 
Q 2072 1275 1594 1428 
L 1178 1569 
Q 750 1706 558 1912 
Q 366 2119 366 2438 
Q 366 2894 700 3153 
Q 1034 3413 1625 3413 
Q 1888 3413 2178 3344 
Q 2469 3275 2778 3144 
L 2778 2419 
L 2447 2419 
Q 2434 2741 2221 2922 
Q 2009 3103 1644 3103 
Q 1281 3103 1095 2975 
Q 909 2847 909 2591 
Q 909 2381 1050 2254 
Q 1191 2128 1613 1997 
L 2069 1856 
Q 2541 1709 2748 1489 
Q 2956 1269 2956 922 
Q 2956 450 2595 179 
Q 2234 -91 1600 -91 
Q 1278 -91 972 -22 
Q 666 47 359 184 
z
" transform="scale(0.015625)"/>
      <path id="DejaVuSerif-75" d="M 2266 3322 
L 3341 3322 
L 3341 331 
L 3884 331 
L 3884 0 
L 2766 0 
L 2766 588 
Q 2606 256 2353 82 
Q 2100 -91 1766 -91 
Q 1213 -91 952 223 
Q 691 538 691 1209 
L 691 2988 
L 172 2988 
L 172 3322 
L 1269 3322 
L 1269 1388 
Q 1269 781 1417 556 
Q 1566 331 1947 331 
Q 2347 331 2556 625 
Q 2766 919 2766 1478 
L 2766 2988 
L 2266 2988 
L 2266 3322 
z
" transform="scale(0.015625)"/>
      <path id="DejaVuSerif-65" d="M 3469 1600 
L 991 1600 
L 991 1575 
Q 991 903 1244 561 
Q 1497 219 1991 219 
Q 2369 219 2611 417 
Q 2853 616 2950 1006 
L 3413 1006 
Q 3275 459 2904 184 
Q 2534 -91 1931 -91 
Q 1203 -91 761 389 
Q 319 869 319 1663 
Q 319 2450 753 2931 
Q 1188 3413 1894 3413 
Q 2647 3413 3050 2948 
Q 3453 2484 3469 1600 
z
M 2791 1931 
Q 2772 2513 2545 2808 
Q 2319 3103 1894 3103 
Q 1497 3103 1269 2806 
Q 1041 2509 991 1931 
L 2791 1931 
z
" transform="scale(0.015625)"/>
     </defs>
     <use xlink:href="#DejaVuSerif-55"/>
     <use xlink:href="#DejaVuSerif-50" transform="translate(84.277344 0)"/>
     <use xlink:href="#DejaVuSerif-41" transform="translate(142.4375 0)"/>
     <use xlink:href="#DejaVuSerif-49" transform="translate(214.654297 0)"/>
     <use xlink:href="#DejaVuSerif-52" transform="translate(254.15625 0)"/>
     <use xlink:href="#DejaVuSerif-20" transform="translate(329.449219 0)"/>
     <use xlink:href="#DejaVuSerif-76" transform="translate(361.236328 0)"/>
     <use xlink:href="#DejaVuSerif-61" transform="translate(417.730469 0)"/>
     <use xlink:href="#DejaVuSerif-72" transform="translate(477.349609 0)"/>
     <use xlink:href="#DejaVuSerif-69" transform="translate(525.152344 0)"/>
     <use xlink:href="#DejaVuSerif-61" transform="translate(557.134766 0)"/>
     <use xlink:href="#DejaVuSerif-6e" transform="translate(616.753906 0)"/>
     <use xlink:href="#DejaVuSerif-74" transform="translate(681.158203 0)"/>
     <use xlink:href="#DejaVuSerif-73" transform="translate(721.34375 0)"/>
     <use xlink:href="#DejaVuSerif-20" transform="translate(772.662109 0)"/>
     <use xlink:href="#DejaVuSerif-28" transform="translate(804.449219 0)"/>
     <use xlink:href="#DejaVuSerif-33" transform="translate(843.462891 0)"/>
     <use xlink:href="#DejaVuSerif-20" transform="translate(907.085938 0)"/>
     <use xlink:href="#DejaVuSerif-75" transform="translate(938.873047 0)"/>
     <use xlink:href="#DejaVuSerif-73" transform="translate(1003.277344 0)"/>
     <use xlink:href="#DejaVuSerif-65" transform="translate(1054.595703 0)"/>
     <use xlink:href="#DejaVuSerif-72" transform="translate(1113.775391 0)"/>
     <use xlink:href="#DejaVuSerif-73" transform="translate(1161.578125 0)"/>
     <use xlink:href="#DejaVuSerif-29" transform="translate(1212.896484 0)"/>
    </g>
   </g>
   <g id="PathCollection_1">
    <defs>
     <path id="m66c852ee66" d="M 0 3.674235 
C 0.974418 3.674235 1.909058 3.287094 2.598076 2.598076 
C 3.287094 1.909058 3.674235 0.974418 3.674235 0 
C 3.674235 -0.974418 3.287094 -1.909058 2.598076 -2.598076 
C 1.909058 -3.287094 0.974418 -3.674235 0 -3.674235 
C -0.974418 -3.674235 -1.909058 -3.287094 -2.598076 -2.598076 
C -3.287094 -1.909058 -3.674235 -0.974418 -3.674235 0 
C -3.674235 0.974418 -3.287094 1.909058 -2.598076 2.598076 
C -1.909058 3.287094 -0.974418 3.674235 0 3.674235 
z
" style="stroke: #1f77b4"/>
    </defs>
    <g clip-path="url(#pd59b3493c3)">
     <use xlink:href="#m66c852ee66" x="74.510158" y="49.637529" style="fill: #1f77b4; stroke: #1f77b4"/>
     <use xlink:href="#m66c852ee66" x="177.561731" y="102.748249" style="fill: #1f77b4; stroke: #1f77b4"/>
     <use xlink:href="#m66c852ee66" x="280.613304" y="167.070454" style="fill: #1f77b4; stroke: #1f77b4"/>
     <use xlink:href="#m66c852ee66" x="383.664878" y="232.822146" style="fill: #1f77b4; stroke: #1f77b4"/>
     <use xlink:href="#m66c852ee66" x="486.716451" y="305.448154" style="fill: #1f77b4; stroke: #1f77b4"/>
    </g>
   </g>
   <g id="PathCollection_2">
    <path d="M 589.768024 392.956382 
C 590.777887 392.956382 591.746525 392.555159 592.460606 391.841078 
C 593.174687 391.126997 593.57591 390.158359 593.57591 389.148496 
C 593.57591 388.138632 593.174687 387.169994 592.460606 386.455913 
C 591.746525 385.741832 590.777887 385.340609 589.768024 385.340609 
C 588.75816 385.340609 587.789522 385.741832 587.075441 386.455913 
C 586.36136 387.169994 585.960137 388.138632 585.960137 389.148496 
C 585.960137 390.158359 586.36136 391.126997 587.075441 391.841078 
C 587.789522 392.555159 588.75816 392.956382 589.768024 392.956382 
L 589.768024 392.956382 
z
" clip-path="url(#pd59b3493c3)" style="fill: none; stroke: #1f77b4; stroke-width: 1.5"/>
   </g>
   <g id="PathCollection_3">
    <defs>
     <path id="mb3b2397f3b" d="M -3.674235 3.674235 
L 3.674235 3.674235 
L 3.674235 -3.674235 
L -3.674235 -3.674235 
z
" style="stroke: #ff7f0e"/>
    </defs>
    <g clip-path="url(#pd59b3493c3)">
     <use xlink:href="#mb3b2397f3b" x="74.510158" y="41.484628" style="fill: #ff7f0e; stroke: #ff7f0e"/>
     <use xlink:href="#mb3b2397f3b" x="177.561731" y="90.388822" style="fill: #ff7f0e; stroke: #ff7f0e"/>
     <use xlink:href="#mb3b2397f3b" x="280.613304" y="153.316805" style="fill: #ff7f0e; stroke: #ff7f0e"/>
     <use xlink:href="#mb3b2397f3b" x="383.664878" y="224.682627" style="fill: #ff7f0e; stroke: #ff7f0e"/>
     <use xlink:href="#mb3b2397f3b" x="486.716451" y="298.646996" style="fill: #ff7f0e; stroke: #ff7f0e"/>
    </g>
   </g>
   <g id="PathCollection_4">
    <path d="M 585.960137 384.732909 
L 593.57591 384.732909 
L 593.57591 377.117136 
L 585.960137 377.117136 
L 585.960137 384.732909 
z
" clip-path="url(#pd59b3493c3)" style="fill: none; stroke: #ff7f0e; stroke-width: 1.5"/>
   </g>
   <g id="PathCollection_5">
    <defs>
     <path id="m819a9e57d2" d="M 0 -3.674235 
L -3.674235 3.674235 
L 3.674235 3.674235 
z
" style="stroke: #2ca02c"/>
    </defs>
    <g clip-path="url(#pd59b3493c3)">
     <use xlink:href="#m819a9e57d2" x="74.510158" y="43.509952" style="fill: #2ca02c; stroke: #2ca02c"/>
     <use xlink:href="#m819a9e57d2" x="177.561731" y="99.384977" style="fill: #2ca02c; stroke: #2ca02c"/>
     <use xlink:href="#m819a9e57d2" x="280.613304" y="157.779347" style="fill: #2ca02c; stroke: #2ca02c"/>
     <use xlink:href="#m819a9e57d2" x="383.664878" y="231.883553" style="fill: #2ca02c; stroke: #2ca02c"/>
     <use xlink:href="#m819a9e57d2" x="486.716451" y="302.800106" style="fill: #2ca02c; stroke: #2ca02c"/>
    </g>
   </g>
   <g id="PathCollection_6">
    <path d="M 589.768024 377.117136 
L 585.960137 384.732909 
L 593.57591 384.732909 
L 589.768024 377.117136 
z
" clip-path="url(#pd59b3493c3)" style="fill: none; stroke: #2ca02c; stroke-width: 1.5"/>
   </g>
   <g id="PathCollection_7">
    <defs>
     <path id="m395a0b1119" d="M -0 3.674235 
L 3.674235 -3.674235 
L -3.674235 -3.674235 
z
" style="stroke: #d62728"/>
    </defs>
    <g clip-path="url(#pd59b3493c3)">
     <use xlink:href="#m395a0b1119" x="74.510158" y="40.668514" style="fill: #d62728; stroke: #d62728"/>
     <use xlink:href="#m395a0b1119" x="177.561731" y="104.172079" style="fill: #d62728; stroke: #d62728"/>
     <use xlink:href="#m395a0b1119" x="280.613304" y="145.274918" style="fill: #d62728; stroke: #d62728"/>
     <use xlink:href="#m395a0b1119" x="383.664878" y="219.339492" style="fill: #d62728; stroke: #d62728"/>
     <use xlink:href="#m395a0b1119" x="486.716451" y="296.422596" style="fill: #d62728; stroke: #d62728"/>
    </g>
   </g>
   <g id="PathCollection_8">
    <path d="M 589.768024 380.02195 
L 593.57591 372.406177 
L 585.960137 372.406177 
L 589.768024 380.02195 
z
" clip-path="url(#pd59b3493c3)" style="fill: none; stroke: #d62728; stroke-width: 1.5"/>
   </g>
   <g id="PathCollection_9">
    <defs>
     <path id="m6e9585cba8" d="M -0 5.196152 
L 5.196152 0 
L 0 -5.196152 
L -5.196152 -0 
z
" style="stroke: #9467bd"/>
    </defs>
    <g clip-path="url(#pd59b3493c3)">
     <use xlink:href="#m6e9585cba8" x="74.510158" y="53.286584" style="fill: #9467bd; stroke: #9467bd"/>
     <use xlink:href="#m6e9585cba8" x="177.561731" y="112.772159" style="fill: #9467bd; stroke: #9467bd"/>
     <use xlink:href="#m6e9585cba8" x="280.613304" y="169.116986" style="fill: #9467bd; stroke: #9467bd"/>
     <use xlink:href="#m6e9585cba8" x="383.664878" y="231.582399" style="fill: #9467bd; stroke: #9467bd"/>
     <use xlink:href="#m6e9585cba8" x="486.716451" y="304.596704" style="fill: #9467bd; stroke: #9467bd"/>
    </g>
   </g>
   <g id="PathCollection_10">
    <path d="M 589.768024 397.672502 
L 595.153188 392.287337 
L 589.768024 386.902172 
L 584.382859 392.287337 
L 589.768024 397.672502 
z
" clip-path="url(#pd59b3493c3)" style="fill: none; stroke: #9467bd; stroke-width: 1.5"/>
   </g>
   <g id="PathCollection_11">
    <defs>
     <path id="m8106bd037d" d="M -1.224745 3.674235 
L 1.224745 3.674235 
L 1.224745 1.224745 
L 3.674235 1.224745 
L 3.674235 -1.224745 
L 1.224745 -1.224745 
L 1.224745 -3.674235 
L -1.224745 -3.674235 
L -1.224745 -1.224745 
L -3.674235 -1.224745 
L -3.674235 1.224745 
L -1.224745 1.224745 
z
" style="stroke: #8c564b"/>
    </defs>
    <g clip-path="url(#pd59b3493c3)">
     <use xlink:href="#m8106bd037d" x="74.510158" y="48.165017" style="fill: #8c564b; stroke: #8c564b"/>
     <use xlink:href="#m8106bd037d" x="177.561731" y="106.785109" style="fill: #8c564b; stroke: #8c564b"/>
     <use xlink:href="#m8106bd037d" x="280.613304" y="174.569505" style="fill: #8c564b; stroke: #8c564b"/>
     <use xlink:href="#m8106bd037d" x="383.664878" y="235.238155" style="fill: #8c564b; stroke: #8c564b"/>
     <use xlink:href="#m8106bd037d" x="486.716451" y="305.01815" style="fill: #8c564b; stroke: #8c564b"/>
    </g>
   </g>
   <g id="PathCollection_12">
    <defs>
     <path id="md6d2444beb" d="M -1.837117 3.674235 
L 0 1.837117 
L 1.837117 3.674235 
L 3.674235 1.837117 
L 1.837117 0 
L 3.674235 -1.837117 
L 1.837117 -3.674235 
L 0 -1.837117 
L -1.837117 -3.674235 
L -3.674235 -1.837117 
L -1.837117 0 
L -3.674235 1.837117 
z
" style="stroke: #e377c2"/>
    </defs>
    <g clip-path="url(#pd59b3493c3)">
     <use xlink:href="#md6d2444beb" x="74.510158" y="44.648831" style="fill: #e377c2; stroke: #e377c2"/>
     <use xlink:href="#md6d2444beb" x="177.561731" y="106.021936" style="fill: #e377c2; stroke: #e377c2"/>
     <use xlink:href="#md6d2444beb" x="280.613304" y="161.464711" style="fill: #e377c2; stroke: #e377c2"/>
     <use xlink:href="#md6d2444beb" x="383.664878" y="228.756142" style="fill: #e377c2; stroke: #e377c2"/>
    </g>
   </g>
   <g id="PathCollection_13">
    <defs>
     <path id="C0_0_2195fe4cc3" d="M -1.903943 3.807887 
L 0 1.903943 
L 1.903943 3.807887 
L 3.807887 1.903943 
L 1.903943 -0 
L 3.807887 -1.903943 
L 1.903943 -3.807887 
L 0 -1.903943 
L -1.903943 -3.807887 
L -3.807887 -1.903943 
L -1.903943 0 
L -3.807887 1.903943 
z
"/>
    </defs>
    <g clip-path="url(#pd59b3493c3)">
     <use xlink:href="#C0_0_2195fe4cc3" x="486.716451" y="307.163934" style="fill: none; stroke: #e377c2; stroke-width: 1.5"/>
    </g>
    <g clip-path="url(#pd59b3493c3)">
     <use xlink:href="#C0_0_2195fe4cc3" x="589.768024" y="380.925023" style="fill: none; stroke: #e377c2; stroke-width: 1.5"/>
    </g>
   </g>
   <g id="PathCollection_14">
    <defs>
     <path id="m85285ede35" d="M -3.807887 3.807887 
L 3.807887 -3.807887 
M -3.807887 -3.807887 
L 3.807887 3.807887 
" style="stroke: #8c564b; stroke-width: 1.5"/>
    </defs>
    <g clip-path="url(#pd59b3493c3)">
     <use xlink:href="#m85285ede35" x="589.768024" y="392.479423" style="fill: #8c564b; stroke: #8c564b; stroke-width: 1.5"/>
    </g>
   </g>
   <g id="legend_1">
    <g id="patch_7">
     <path d="M 627.457908 261.516391 
L 814.655799 261.516391 
Q 816.355799 261.516391 816.355799 259.816391 
L 816.355799 173.331547 
Q 816.355799 171.631547 814.655799 171.631547 
L 627.457908 171.631547 
Q 625.757908 171.631547 625.757908 173.331547 
L 625.757908 259.816391 
Q 625.757908 261.516391 627.457908 261.516391 
z
" style="fill: #ffffff; opacity: 0.8; stroke: #cccccc; stroke-linejoin: miter"/>
    </g>
    <g id="line2d_60">
     <path d="M 629.157908 178.515219 
L 637.657908 178.515219 
L 646.157908 178.515219 
" style="fill: none; stroke: #1f77b4; stroke-width: 2; stroke-linecap: square"/>
    </g>
    <g id="text_14">
     <!-- UPAIR Main (d=256, L=4, r=2) -->
     <g transform="translate(652.957908 181.490219) scale(0.085 -0.085)">
      <defs>
       <path id="DejaVuSerif-4d" d="M 353 0 
L 353 331 
L 947 331 
L 947 4331 
L 319 4331 
L 319 4666 
L 1678 4666 
L 3316 1344 
L 4953 4666 
L 6228 4666 
L 6228 4331 
L 5606 4331 
L 5606 331 
L 6203 331 
L 6203 0 
L 4378 0 
L 4378 331 
L 4972 331 
L 4972 3938 
L 3372 684 
L 2931 684 
L 1331 3938 
L 1331 331 
L 1925 331 
L 1925 0 
L 353 0 
z
" transform="scale(0.015625)"/>
       <path id="DejaVuSerif-3d" d="M 678 2894 
L 4684 2894 
L 4684 2394 
L 678 2394 
L 678 2894 
z
M 678 1619 
L 4684 1619 
L 4684 1119 
L 678 1119 
L 678 1619 
z
" transform="scale(0.015625)"/>
       <path id="DejaVuSerif-35" d="M 3219 4666 
L 3219 4153 
L 1081 4153 
L 1081 2816 
Q 1244 2928 1461 2984 
Q 1678 3041 1947 3041 
Q 2703 3041 3140 2622 
Q 3578 2203 3578 1478 
Q 3578 738 3136 323 
Q 2694 -91 1894 -91 
Q 1572 -91 1234 -12 
Q 897 66 544 225 
L 544 1131 
L 897 1131 
Q 925 688 1179 453 
Q 1434 219 1894 219 
Q 2388 219 2653 544 
Q 2919 869 2919 1478 
Q 2919 2084 2655 2407 
Q 2391 2731 1894 2731 
Q 1613 2731 1398 2631 
Q 1184 2531 1019 2322 
L 750 2322 
L 750 4666 
L 3219 4666 
z
" transform="scale(0.015625)"/>
       <path id="DejaVuSerif-36" d="M 2094 219 
Q 2534 219 2771 542 
Q 3009 866 3009 1472 
Q 3009 2078 2771 2401 
Q 2534 2725 2094 2725 
Q 1647 2725 1412 2412 
Q 1178 2100 1178 1509 
Q 1178 888 1415 553 
Q 1653 219 2094 219 
z
M 1075 2569 
Q 1288 2803 1556 2918 
Q 1825 3034 2163 3034 
Q 2859 3034 3264 2615 
Q 3669 2197 3669 1472 
Q 3669 763 3233 336 
Q 2797 -91 2069 -91 
Q 1278 -91 853 498 
Q 428 1088 428 2181 
Q 428 3406 931 4078 
Q 1434 4750 2350 4750 
Q 2597 4750 2869 4703 
Q 3141 4656 3425 4563 
L 3425 3794 
L 3072 3794 
Q 3034 4109 2831 4275 
Q 2628 4441 2284 4441 
Q 1678 4441 1381 3981 
Q 1084 3522 1075 2569 
z
" transform="scale(0.015625)"/>
       <path id="DejaVuSerif-2c" d="M 231 -622 
Q 525 -406 662 -114 
Q 800 178 800 594 
L 800 709 
L 1416 709 
Q 1391 175 1164 -208 
Q 938 -591 481 -872 
L 231 -622 
z
" transform="scale(0.015625)"/>
      </defs>
      <use xlink:href="#DejaVuSerif-55"/>
      <use xlink:href="#DejaVuSerif-50" transform="translate(84.277344 0)"/>
      <use xlink:href="#DejaVuSerif-41" transform="translate(142.4375 0)"/>
      <use xlink:href="#DejaVuSerif-49" transform="translate(214.654297 0)"/>
      <use xlink:href="#DejaVuSerif-52" transform="translate(254.15625 0)"/>
      <use xlink:href="#DejaVuSerif-20" transform="translate(329.449219 0)"/>
      <use xlink:href="#DejaVuSerif-4d" transform="translate(361.236328 0)"/>
      <use xlink:href="#DejaVuSerif-61" transform="translate(463.628906 0)"/>
      <use xlink:href="#DejaVuSerif-69" transform="translate(523.248047 0)"/>
      <use xlink:href="#DejaVuSerif-6e" transform="translate(555.230469 0)"/>
      <use xlink:href="#DejaVuSerif-20" transform="translate(619.634766 0)"/>
      <use xlink:href="#DejaVuSerif-28" transform="translate(651.421875 0)"/>
      <use xlink:href="#DejaVuSerif-64" transform="translate(690.435547 0)"/>
      <use xlink:href="#DejaVuSerif-3d" transform="translate(754.449219 0)"/>
      <use xlink:href="#DejaVuSerif-32" transform="translate(838.238281 0)"/>
      <use xlink:href="#DejaVuSerif-35" transform="translate(901.861328 0)"/>
      <use xlink:href="#DejaVuSerif-36" transform="translate(965.484375 0)"/>
      <use xlink:href="#DejaVuSerif-2c" transform="translate(1029.107422 0)"/>
      <use xlink:href="#DejaVuSerif-20" transform="translate(1060.894531 0)"/>
      <use xlink:href="#DejaVuSerif-4c" transform="translate(1092.681641 0)"/>
      <use xlink:href="#DejaVuSerif-3d" transform="translate(1159.087891 0)"/>
      <use xlink:href="#DejaVuSerif-34" transform="translate(1242.876953 0)"/>
      <use xlink:href="#DejaVuSerif-2c" transform="translate(1306.5 0)"/>
      <use xlink:href="#DejaVuSerif-20" transform="translate(1338.287109 0)"/>
      <use xlink:href="#DejaVuSerif-72" transform="translate(1370.074219 0)"/>
      <use xlink:href="#DejaVuSerif-3d" transform="translate(1417.876953 0)"/>
      <use xlink:href="#DejaVuSerif-32" transform="translate(1501.666016 0)"/>
      <use xlink:href="#DejaVuSerif-29" transform="translate(1565.289062 0)"/>
     </g>
    </g>
    <g id="line2d_61">
     <path d="M 629.157908 190.991625 
L 637.657908 190.991625 
L 646.157908 190.991625 
" style="fill: none; stroke: #ff7f0e; stroke-width: 2; stroke-linecap: square"/>
    </g>
    <g id="text_15">
     <!-- UPAIR Shallow (d=256, L=2, r=2) -->
     <g transform="translate(652.957908 193.966625) scale(0.085 -0.085)">
      <defs>
       <path id="DejaVuSerif-53" d="M 594 225 
L 594 1288 
L 953 1284 
Q 969 753 1261 498 
Q 1553 244 2150 244 
Q 2706 244 2998 464 
Q 3291 684 3291 1106 
Q 3291 1444 3114 1625 
Q 2938 1806 2369 1978 
L 1753 2163 
Q 1084 2366 811 2669 
Q 538 2972 538 3500 
Q 538 4094 959 4422 
Q 1381 4750 2144 4750 
Q 2469 4750 2856 4679 
Q 3244 4609 3681 4475 
L 3681 3481 
L 3328 3481 
Q 3275 3975 2998 4195 
Q 2722 4416 2156 4416 
Q 1663 4416 1405 4214 
Q 1147 4013 1147 3628 
Q 1147 3294 1340 3103 
Q 1534 2913 2163 2725 
L 2741 2553 
Q 3375 2363 3645 2067 
Q 3916 1772 3916 1275 
Q 3916 597 3481 253 
Q 3047 -91 2188 -91 
Q 1803 -91 1404 -12 
Q 1006 66 594 225 
z
" transform="scale(0.015625)"/>
       <path id="DejaVuSerif-68" d="M 263 0 
L 263 331 
L 781 331 
L 781 4531 
L 231 4531 
L 231 4863 
L 1356 4863 
L 1356 2731 
Q 1516 3069 1770 3241 
Q 2025 3413 2363 3413 
Q 2913 3413 3172 3097 
Q 3431 2781 3431 2113 
L 3431 331 
L 3944 331 
L 3944 0 
L 2356 0 
L 2356 331 
L 2853 331 
L 2853 1931 
Q 2853 2541 2704 2764 
Q 2556 2988 2175 2988 
Q 1775 2988 1565 2697 
Q 1356 2406 1356 1850 
L 1356 331 
L 1856 331 
L 1856 0 
L 263 0 
z
" transform="scale(0.015625)"/>
       <path id="DejaVuSerif-6c" d="M 1313 331 
L 1856 331 
L 1856 0 
L 184 0 
L 184 331 
L 738 331 
L 738 4531 
L 184 4531 
L 184 4863 
L 1313 4863 
L 1313 331 
z
" transform="scale(0.015625)"/>
       <path id="DejaVuSerif-6f" d="M 1925 219 
Q 2388 219 2623 584 
Q 2859 950 2859 1663 
Q 2859 2375 2623 2739 
Q 2388 3103 1925 3103 
Q 1463 3103 1227 2739 
Q 991 2375 991 1663 
Q 991 950 1228 584 
Q 1466 219 1925 219 
z
M 1925 -91 
Q 1200 -91 759 389 
Q 319 869 319 1663 
Q 319 2456 758 2934 
Q 1197 3413 1925 3413 
Q 2653 3413 3092 2934 
Q 3531 2456 3531 1663 
Q 3531 869 3092 389 
Q 2653 -91 1925 -91 
z
" transform="scale(0.015625)"/>
       <path id="DejaVuSerif-77" d="M 3072 3322 
L 3922 728 
L 4672 2988 
L 4191 2988 
L 4191 3322 
L 5394 3322 
L 5394 2988 
L 5025 2988 
L 4038 0 
L 3559 0 
L 2741 2484 
L 1919 0 
L 1459 0 
L 475 2988 
L 103 2988 
L 103 3322 
L 1606 3322 
L 1606 2988 
L 1069 2988 
L 1813 728 
L 2669 3322 
L 3072 3322 
z
" transform="scale(0.015625)"/>
      </defs>
      <use xlink:href="#DejaVuSerif-55"/>
      <use xlink:href="#DejaVuSerif-50" transform="translate(84.277344 0)"/>
      <use xlink:href="#DejaVuSerif-41" transform="translate(142.4375 0)"/>
      <use xlink:href="#DejaVuSerif-49" transform="translate(214.654297 0)"/>
      <use xlink:href="#DejaVuSerif-52" transform="translate(254.15625 0)"/>
      <use xlink:href="#DejaVuSerif-20" transform="translate(329.449219 0)"/>
      <use xlink:href="#DejaVuSerif-53" transform="translate(361.236328 0)"/>
      <use xlink:href="#DejaVuSerif-68" transform="translate(429.742188 0)"/>
      <use xlink:href="#DejaVuSerif-61" transform="translate(494.146484 0)"/>
      <use xlink:href="#DejaVuSerif-6c" transform="translate(553.765625 0)"/>
      <use xlink:href="#DejaVuSerif-6c" transform="translate(585.748047 0)"/>
      <use xlink:href="#DejaVuSerif-6f" transform="translate(617.730469 0)"/>
      <use xlink:href="#DejaVuSerif-77" transform="translate(677.935547 0)"/>
      <use xlink:href="#DejaVuSerif-20" transform="translate(763.53125 0)"/>
      <use xlink:href="#DejaVuSerif-28" transform="translate(795.318359 0)"/>
      <use xlink:href="#DejaVuSerif-64" transform="translate(834.332031 0)"/>
      <use xlink:href="#DejaVuSerif-3d" transform="translate(898.345703 0)"/>
      <use xlink:href="#DejaVuSerif-32" transform="translate(982.134766 0)"/>
      <use xlink:href="#DejaVuSerif-35" transform="translate(1045.757812 0)"/>
      <use xlink:href="#DejaVuSerif-36" transform="translate(1109.380859 0)"/>
      <use xlink:href="#DejaVuSerif-2c" transform="translate(1173.003906 0)"/>
      <use xlink:href="#DejaVuSerif-20" transform="translate(1204.791016 0)"/>
      <use xlink:href="#DejaVuSerif-4c" transform="translate(1236.578125 0)"/>
      <use xlink:href="#DejaVuSerif-3d" transform="translate(1302.984375 0)"/>
      <use xlink:href="#DejaVuSerif-32" transform="translate(1386.773438 0)"/>
      <use xlink:href="#DejaVuSerif-2c" transform="translate(1450.396484 0)"/>
      <use xlink:href="#DejaVuSerif-20" transform="translate(1482.183594 0)"/>
      <use xlink:href="#DejaVuSerif-72" transform="translate(1513.970703 0)"/>
      <use xlink:href="#DejaVuSerif-3d" transform="translate(1561.773438 0)"/>
      <use xlink:href="#DejaVuSerif-32" transform="translate(1645.5625 0)"/>
      <use xlink:href="#DejaVuSerif-29" transform="translate(1709.185547 0)"/>
     </g>
    </g>
    <g id="line2d_62">
     <path d="M 629.157908 203.468031 
L 637.657908 203.468031 
L 646.157908 203.468031 
" style="fill: none; stroke: #2ca02c; stroke-width: 2; stroke-linecap: square"/>
    </g>
    <g id="text_16">
     <!-- UPAIR Deep (d=256, L=6, r=2) -->
     <g transform="translate(652.957908 206.443031) scale(0.085 -0.085)">
      <defs>
       <path id="DejaVuSerif-44" d="M 1581 331 
L 2163 331 
Q 3072 331 3558 850 
Q 4044 1369 4044 2338 
Q 4044 3306 3559 3818 
Q 3075 4331 2163 4331 
L 1581 4331 
L 1581 331 
z
M 353 0 
L 353 331 
L 947 331 
L 947 4331 
L 353 4331 
L 353 4666 
L 2209 4666 
Q 3416 4666 4089 4050 
Q 4763 3434 4763 2338 
Q 4763 1238 4088 619 
Q 3413 0 2209 0 
L 353 0 
z
" transform="scale(0.015625)"/>
       <path id="DejaVuSerif-70" d="M 1313 1825 
L 1313 1497 
Q 1313 897 1542 583 
Q 1772 269 2209 269 
Q 2650 269 2876 622 
Q 3103 975 3103 1663 
Q 3103 2353 2876 2703 
Q 2650 3053 2209 3053 
Q 1772 3053 1542 2737 
Q 1313 2422 1313 1825 
z
M 738 2988 
L 184 2988 
L 184 3322 
L 1313 3322 
L 1313 2803 
Q 1481 3116 1742 3264 
Q 2003 3413 2388 3413 
Q 3000 3413 3387 2928 
Q 3775 2444 3775 1663 
Q 3775 881 3387 395 
Q 3000 -91 2388 -91 
Q 2003 -91 1742 57 
Q 1481 206 1313 519 
L 1313 -997 
L 1856 -997 
L 1856 -1331 
L 184 -1331 
L 184 -997 
L 738 -997 
L 738 2988 
z
" transform="scale(0.015625)"/>
      </defs>
      <use xlink:href="#DejaVuSerif-55"/>
      <use xlink:href="#DejaVuSerif-50" transform="translate(84.277344 0)"/>
      <use xlink:href="#DejaVuSerif-41" transform="translate(142.4375 0)"/>
      <use xlink:href="#DejaVuSerif-49" transform="translate(214.654297 0)"/>
      <use xlink:href="#DejaVuSerif-52" transform="translate(254.15625 0)"/>
      <use xlink:href="#DejaVuSerif-20" transform="translate(329.449219 0)"/>
      <use xlink:href="#DejaVuSerif-44" transform="translate(361.236328 0)"/>
      <use xlink:href="#DejaVuSerif-65" transform="translate(441.412109 0)"/>
      <use xlink:href="#DejaVuSerif-65" transform="translate(500.591797 0)"/>
      <use xlink:href="#DejaVuSerif-70" transform="translate(559.771484 0)"/>
      <use xlink:href="#DejaVuSerif-20" transform="translate(623.785156 0)"/>
      <use xlink:href="#DejaVuSerif-28" transform="translate(655.572266 0)"/>
      <use xlink:href="#DejaVuSerif-64" transform="translate(694.585938 0)"/>
      <use xlink:href="#DejaVuSerif-3d" transform="translate(758.599609 0)"/>
      <use xlink:href="#DejaVuSerif-32" transform="translate(842.388672 0)"/>
      <use xlink:href="#DejaVuSerif-35" transform="translate(906.011719 0)"/>
      <use xlink:href="#DejaVuSerif-36" transform="translate(969.634766 0)"/>
      <use xlink:href="#DejaVuSerif-2c" transform="translate(1033.257812 0)"/>
      <use xlink:href="#DejaVuSerif-20" transform="translate(1065.044922 0)"/>
      <use xlink:href="#DejaVuSerif-4c" transform="translate(1096.832031 0)"/>
      <use xlink:href="#DejaVuSerif-3d" transform="translate(1163.238281 0)"/>
      <use xlink:href="#DejaVuSerif-36" transform="translate(1247.027344 0)"/>
      <use xlink:href="#DejaVuSerif-2c" transform="translate(1310.650391 0)"/>
      <use xlink:href="#DejaVuSerif-20" transform="translate(1342.4375 0)"/>
      <use xlink:href="#DejaVuSerif-72" transform="translate(1374.224609 0)"/>
      <use xlink:href="#DejaVuSerif-3d" transform="translate(1422.027344 0)"/>
      <use xlink:href="#DejaVuSerif-32" transform="translate(1505.816406 0)"/>
      <use xlink:href="#DejaVuSerif-29" transform="translate(1569.439453 0)"/>
     </g>
    </g>
    <g id="line2d_63">
     <path d="M 629.157908 215.944437 
L 637.657908 215.944437 
L 646.157908 215.944437 
" style="fill: none; stroke: #d62728; stroke-width: 2; stroke-linecap: square"/>
    </g>
    <g id="text_17">
     <!-- UPAIR Narrow (d=192, L=4, r=2) -->
     <g transform="translate(652.957908 218.919437) scale(0.085 -0.085)">
      <defs>
       <path id="DejaVuSerif-4e" d="M 313 0 
L 313 331 
L 941 331 
L 941 4331 
L 313 4331 
L 313 4666 
L 1509 4666 
L 4306 984 
L 4306 4331 
L 3681 4331 
L 3681 4666 
L 5319 4666 
L 5319 4331 
L 4691 4331 
L 4691 -91 
L 4313 -91 
L 1325 3841 
L 1325 331 
L 1953 331 
L 1953 0 
L 313 0 
z
" transform="scale(0.015625)"/>
       <path id="DejaVuSerif-39" d="M 2994 2091 
Q 2784 1856 2512 1740 
Q 2241 1625 1900 1625 
Q 1206 1625 804 2044 
Q 403 2463 403 3188 
Q 403 3897 839 4323 
Q 1275 4750 2003 4750 
Q 2794 4750 3217 4161 
Q 3641 3572 3641 2478 
Q 3641 1253 3137 581 
Q 2634 -91 1722 -91 
Q 1475 -91 1203 -44 
Q 931 3 647 97 
L 647 872 
L 997 872 
Q 1038 556 1241 387 
Q 1444 219 1784 219 
Q 2391 219 2687 676 
Q 2984 1134 2994 2091 
z
M 1978 4441 
Q 1534 4441 1298 4117 
Q 1063 3794 1063 3188 
Q 1063 2581 1298 2256 
Q 1534 1931 1978 1931 
Q 2422 1931 2658 2245 
Q 2894 2559 2894 3150 
Q 2894 3772 2656 4106 
Q 2419 4441 1978 4441 
z
" transform="scale(0.015625)"/>
      </defs>
      <use xlink:href="#DejaVuSerif-55"/>
      <use xlink:href="#DejaVuSerif-50" transform="translate(84.277344 0)"/>
      <use xlink:href="#DejaVuSerif-41" transform="translate(142.4375 0)"/>
      <use xlink:href="#DejaVuSerif-49" transform="translate(214.654297 0)"/>
      <use xlink:href="#DejaVuSerif-52" transform="translate(254.15625 0)"/>
      <use xlink:href="#DejaVuSerif-20" transform="translate(329.449219 0)"/>
      <use xlink:href="#DejaVuSerif-4e" transform="translate(361.236328 0)"/>
      <use xlink:href="#DejaVuSerif-61" transform="translate(448.736328 0)"/>
      <use xlink:href="#DejaVuSerif-72" transform="translate(508.355469 0)"/>
      <use xlink:href="#DejaVuSerif-72" transform="translate(556.158203 0)"/>
      <use xlink:href="#DejaVuSerif-6f" transform="translate(603.960938 0)"/>
      <use xlink:href="#DejaVuSerif-77" transform="translate(664.166016 0)"/>
      <use xlink:href="#DejaVuSerif-20" transform="translate(749.761719 0)"/>
      <use xlink:href="#DejaVuSerif-28" transform="translate(781.548828 0)"/>
      <use xlink:href="#DejaVuSerif-64" transform="translate(820.5625 0)"/>
      <use xlink:href="#DejaVuSerif-3d" transform="translate(884.576172 0)"/>
      <use xlink:href="#DejaVuSerif-31" transform="translate(968.365234 0)"/>
      <use xlink:href="#DejaVuSerif-39" transform="translate(1031.988281 0)"/>
      <use xlink:href="#DejaVuSerif-32" transform="translate(1095.611328 0)"/>
      <use xlink:href="#DejaVuSerif-2c" transform="translate(1159.234375 0)"/>
      <use xlink:href="#DejaVuSerif-20" transform="translate(1191.021484 0)"/>
      <use xlink:href="#DejaVuSerif-4c" transform="translate(1222.808594 0)"/>
      <use xlink:href="#DejaVuSerif-3d" transform="translate(1289.214844 0)"/>
      <use xlink:href="#DejaVuSerif-34" transform="translate(1373.003906 0)"/>
      <use xlink:href="#DejaVuSerif-2c" transform="translate(1436.626953 0)"/>
      <use xlink:href="#DejaVuSerif-20" transform="translate(1468.414062 0)"/>
      <use xlink:href="#DejaVuSerif-72" transform="translate(1500.201172 0)"/>
      <use xlink:href="#DejaVuSerif-3d" transform="translate(1548.003906 0)"/>
      <use xlink:href="#DejaVuSerif-32" transform="translate(1631.792969 0)"/>
      <use xlink:href="#DejaVuSerif-29" transform="translate(1695.416016 0)"/>
     </g>
    </g>
    <g id="line2d_64">
     <path d="M 629.157908 228.420844 
L 637.657908 228.420844 
L 646.157908 228.420844 
" style="fill: none; stroke: #9467bd; stroke-width: 2; stroke-linecap: square"/>
    </g>
    <g id="text_18">
     <!-- UPAIR Wide (d=320, L=4, r=2) -->
     <g transform="translate(652.957908 231.395844) scale(0.085 -0.085)">
      <defs>
       <path id="DejaVuSerif-57" d="M 4878 0 
L 4366 0 
L 3297 3794 
L 2228 0 
L 1716 0 
L 494 4331 
L 31 4331 
L 31 4666 
L 1734 4666 
L 1734 4331 
L 1153 4331 
L 2125 884 
L 3188 4666 
L 3694 4666 
L 4775 844 
L 5753 4331 
L 5216 4331 
L 5216 4666 
L 6559 4666 
L 6559 4331 
L 6100 4331 
L 4878 0 
z
" transform="scale(0.015625)"/>
      </defs>
      <use xlink:href="#DejaVuSerif-55"/>
      <use xlink:href="#DejaVuSerif-50" transform="translate(84.277344 0)"/>
      <use xlink:href="#DejaVuSerif-41" transform="translate(142.4375 0)"/>
      <use xlink:href="#DejaVuSerif-49" transform="translate(214.654297 0)"/>
      <use xlink:href="#DejaVuSerif-52" transform="translate(254.15625 0)"/>
      <use xlink:href="#DejaVuSerif-20" transform="translate(329.449219 0)"/>
      <use xlink:href="#DejaVuSerif-57" transform="translate(361.236328 0)"/>
      <use xlink:href="#DejaVuSerif-69" transform="translate(462.269531 0)"/>
      <use xlink:href="#DejaVuSerif-64" transform="translate(494.251953 0)"/>
      <use xlink:href="#DejaVuSerif-65" transform="translate(558.265625 0)"/>
      <use xlink:href="#DejaVuSerif-20" transform="translate(617.445312 0)"/>
      <use xlink:href="#DejaVuSerif-28" transform="translate(649.232422 0)"/>
      <use xlink:href="#DejaVuSerif-64" transform="translate(688.246094 0)"/>
      <use xlink:href="#DejaVuSerif-3d" transform="translate(752.259766 0)"/>
      <use xlink:href="#DejaVuSerif-33" transform="translate(836.048828 0)"/>
      <use xlink:href="#DejaVuSerif-32" transform="translate(899.671875 0)"/>
      <use xlink:href="#DejaVuSerif-30" transform="translate(963.294922 0)"/>
      <use xlink:href="#DejaVuSerif-2c" transform="translate(1026.917969 0)"/>
      <use xlink:href="#DejaVuSerif-20" transform="translate(1058.705078 0)"/>
      <use xlink:href="#DejaVuSerif-4c" transform="translate(1090.492188 0)"/>
      <use xlink:href="#DejaVuSerif-3d" transform="translate(1156.898438 0)"/>
      <use xlink:href="#DejaVuSerif-34" transform="translate(1240.6875 0)"/>
      <use xlink:href="#DejaVuSerif-2c" transform="translate(1304.310547 0)"/>
      <use xlink:href="#DejaVuSerif-20" transform="translate(1336.097656 0)"/>
      <use xlink:href="#DejaVuSerif-72" transform="translate(1367.884766 0)"/>
      <use xlink:href="#DejaVuSerif-3d" transform="translate(1415.6875 0)"/>
      <use xlink:href="#DejaVuSerif-32" transform="translate(1499.476562 0)"/>
      <use xlink:href="#DejaVuSerif-29" transform="translate(1563.099609 0)"/>
     </g>
    </g>
    <g id="line2d_65">
     <path d="M 629.157908 240.89725 
L 637.657908 240.89725 
L 646.157908 240.89725 
" style="fill: none; stroke: #8c564b; stroke-width: 2; stroke-linecap: square"/>
    </g>
    <g id="text_19">
     <!-- UPAIR Wide-deep (d=320, L=6, r=2) -->
     <g transform="translate(652.957908 243.87225) scale(0.085 -0.085)">
      <defs>
       <path id="DejaVuSerif-2d" d="M 281 1959 
L 1881 1959 
L 1881 1472 
L 281 1472 
L 281 1959 
z
" transform="scale(0.015625)"/>
      </defs>
      <use xlink:href="#DejaVuSerif-55"/>
      <use xlink:href="#DejaVuSerif-50" transform="translate(84.277344 0)"/>
      <use xlink:href="#DejaVuSerif-41" transform="translate(142.4375 0)"/>
      <use xlink:href="#DejaVuSerif-49" transform="translate(214.654297 0)"/>
      <use xlink:href="#DejaVuSerif-52" transform="translate(254.15625 0)"/>
      <use xlink:href="#DejaVuSerif-20" transform="translate(329.449219 0)"/>
      <use xlink:href="#DejaVuSerif-57" transform="translate(361.236328 0)"/>
      <use xlink:href="#DejaVuSerif-69" transform="translate(462.269531 0)"/>
      <use xlink:href="#DejaVuSerif-64" transform="translate(494.251953 0)"/>
      <use xlink:href="#DejaVuSerif-65" transform="translate(558.265625 0)"/>
      <use xlink:href="#DejaVuSerif-2d" transform="translate(617.445312 0)"/>
      <use xlink:href="#DejaVuSerif-64" transform="translate(651.234375 0)"/>
      <use xlink:href="#DejaVuSerif-65" transform="translate(715.248047 0)"/>
      <use xlink:href="#DejaVuSerif-65" transform="translate(774.427734 0)"/>
      <use xlink:href="#DejaVuSerif-70" transform="translate(833.607422 0)"/>
      <use xlink:href="#DejaVuSerif-20" transform="translate(897.621094 0)"/>
      <use xlink:href="#DejaVuSerif-28" transform="translate(929.408203 0)"/>
      <use xlink:href="#DejaVuSerif-64" transform="translate(968.421875 0)"/>
      <use xlink:href="#DejaVuSerif-3d" transform="translate(1032.435547 0)"/>
      <use xlink:href="#DejaVuSerif-33" transform="translate(1116.224609 0)"/>
      <use xlink:href="#DejaVuSerif-32" transform="translate(1179.847656 0)"/>
      <use xlink:href="#DejaVuSerif-30" transform="translate(1243.470703 0)"/>
      <use xlink:href="#DejaVuSerif-2c" transform="translate(1307.09375 0)"/>
      <use xlink:href="#DejaVuSerif-20" transform="translate(1338.880859 0)"/>
      <use xlink:href="#DejaVuSerif-4c" transform="translate(1370.667969 0)"/>
      <use xlink:href="#DejaVuSerif-3d" transform="translate(1437.074219 0)"/>
      <use xlink:href="#DejaVuSerif-36" transform="translate(1520.863281 0)"/>
      <use xlink:href="#DejaVuSerif-2c" transform="translate(1584.486328 0)"/>
      <use xlink:href="#DejaVuSerif-20" transform="translate(1616.273438 0)"/>
      <use xlink:href="#DejaVuSerif-72" transform="translate(1648.060547 0)"/>
      <use xlink:href="#DejaVuSerif-3d" transform="translate(1695.863281 0)"/>
      <use xlink:href="#DejaVuSerif-32" transform="translate(1779.652344 0)"/>
      <use xlink:href="#DejaVuSerif-29" transform="translate(1843.275391 0)"/>
     </g>
    </g>
    <g id="line2d_66">
     <path d="M 629.157908 253.373656 
L 637.657908 253.373656 
L 646.157908 253.373656 
" style="fill: none; stroke: #e377c2; stroke-width: 2; stroke-linecap: square"/>
    </g>
    <g id="text_20">
     <!-- UPAIR MLP-wide (d=256, L=4, r=4) -->
     <g transform="translate(652.957908 256.348656) scale(0.085 -0.085)">
      <use xlink:href="#DejaVuSerif-55"/>
      <use xlink:href="#DejaVuSerif-50" transform="translate(84.277344 0)"/>
      <use xlink:href="#DejaVuSerif-41" transform="translate(142.4375 0)"/>
      <use xlink:href="#DejaVuSerif-49" transform="translate(214.654297 0)"/>
      <use xlink:href="#DejaVuSerif-52" transform="translate(254.15625 0)"/>
      <use xlink:href="#DejaVuSerif-20" transform="translate(329.449219 0)"/>
      <use xlink:href="#DejaVuSerif-4d" transform="translate(361.236328 0)"/>
      <use xlink:href="#DejaVuSerif-4c" transform="translate(463.628906 0)"/>
      <use xlink:href="#DejaVuSerif-50" transform="translate(530.035156 0)"/>
      <use xlink:href="#DejaVuSerif-2d" transform="translate(591.820312 0)"/>
      <use xlink:href="#DejaVuSerif-77" transform="translate(625.609375 0)"/>
      <use xlink:href="#DejaVuSerif-69" transform="translate(711.205078 0)"/>
      <use xlink:href="#DejaVuSerif-64" transform="translate(743.1875 0)"/>
      <use xlink:href="#DejaVuSerif-65" transform="translate(807.201172 0)"/>
      <use xlink:href="#DejaVuSerif-20" transform="translate(866.380859 0)"/>
      <use xlink:href="#DejaVuSerif-28" transform="translate(898.167969 0)"/>
      <use xlink:href="#DejaVuSerif-64" transform="translate(937.181641 0)"/>
      <use xlink:href="#DejaVuSerif-3d" transform="translate(1001.195312 0)"/>
      <use xlink:href="#DejaVuSerif-32" transform="translate(1084.984375 0)"/>
      <use xlink:href="#DejaVuSerif-35" transform="translate(1148.607422 0)"/>
      <use xlink:href="#DejaVuSerif-36" transform="translate(1212.230469 0)"/>
      <use xlink:href="#DejaVuSerif-2c" transform="translate(1275.853516 0)"/>
      <use xlink:href="#DejaVuSerif-20" transform="translate(1307.640625 0)"/>
      <use xlink:href="#DejaVuSerif-4c" transform="translate(1339.427734 0)"/>
      <use xlink:href="#DejaVuSerif-3d" transform="translate(1405.833984 0)"/>
      <use xlink:href="#DejaVuSerif-34" transform="translate(1489.623047 0)"/>
      <use xlink:href="#DejaVuSerif-2c" transform="translate(1553.246094 0)"/>
      <use xlink:href="#DejaVuSerif-20" transform="translate(1585.033203 0)"/>
      <use xlink:href="#DejaVuSerif-72" transform="translate(1616.820312 0)"/>
      <use xlink:href="#DejaVuSerif-3d" transform="translate(1664.623047 0)"/>
      <use xlink:href="#DejaVuSerif-34" transform="translate(1748.412109 0)"/>
      <use xlink:href="#DejaVuSerif-29" transform="translate(1812.035156 0)"/>
     </g>
    </g>
   </g>
  </g>
 </g>
 <defs>
  <clipPath id="pd59b3493c3">
   <rect x="53.899844" y="23.077969" width="556.478495" height="386.992"/>
  </clipPath>
 </defs>
</svg>
