<?xml version="1.0" encoding="utf-8" standalone="no"?>
<!DOCTYPE svg PUBLIC "-//W3C//DTD SVG 1.1//EN"
  "http://www.w3.org/Graphics/SVG/1.1/DTD/svg11.dtd">
<svg xmlns:xlink="http://www.w3.org/1999/xlink" width="822.792605pt" height="449.561844pt" viewBox="0 0 822.792605 449.561844" xmlns="http://www.w3.org/2000/svg" version="1.1">
 <metadata>
  <rdf:RDF xmlns:dc="http://purl.org/dc/elements/1.1/" xmlns:cc="http://creativecommons.org/ns#" xmlns:rdf="http://www.w3.org/1999/02/22-rdf-syntax-ns#">
   <cc:Work>
    <dc:type rdf:resource="http://purl.org/dc/dcmitype/StillImage"/>
    <dc:date>2026-06-24T12:41:28.045522</dc:date>
    <dc:format>image/svg+xml</dc:format>
    <dc:creator>
     <cc:Agent>
      <dc:title>Matplotlib v3.10.0, https://matplotlib.org/</dc:title>
     </cc:Agent>
    </dc:creator>
   </cc:Work>
  </rdf:RDF>
 </metadata>
 <defs>
  <style type="text/css">*{stroke-linejoin: round; stroke-linecap: butt}</style>
 </defs>
 <g id="figure_1">
  <g id="patch_1">
   <path d="M 0 449.561844 
L 822.792605 449.561844 
L 822.792605 0 
L 0 0 
z
" style="fill: #ffffff"/>
  </g>
  <g id="axes_1">
   <g id="patch_2">
    <path d="M 53.899844 410.069969 
L 565.648338 410.069969 
L 565.648338 23.077969 
L 53.899844 23.077969 
z
" style="fill: #ffffff"/>
   </g>
   <g id="matplotlib.axis_1">
    <g id="xtick_1">
     <g id="line2d_1">
      <path d="M 72.853492 410.069969 
L 72.853492 23.077969 
" clip-path="url(#p96bb3b2886)" style="fill: none; stroke-dasharray: 0.8,1.32; stroke-dashoffset: 0; stroke: #b0b0b0; stroke-opacity: 0.65; stroke-width: 0.8"/>
     </g>
     <g id="line2d_2">
      <defs>
       <path id="m2f9bd0cd55" d="M 0 0 
L 0 3.5 
" style="stroke: #000000; stroke-width: 0.8"/>
      </defs>
      <g>
       <use xlink:href="#m2f9bd0cd55" x="72.853492" y="410.069969" style="stroke: #000000; stroke-width: 0.8"/>
      </g>
     </g>
     <g id="text_1">
      <!-- −4 -->
      <g transform="translate(65.113843 425.048328) scale(0.105 -0.105)">
       <defs>
        <path id="DejaVuSerif-2212" d="M 678 2259 
L 4684 2259 
L 4684 1753 
L 678 1753 
L 678 2259 
z
" transform="scale(0.015625)"/>
        <path id="DejaVuSerif-34" d="M 2234 1581 
L 2234 4063 
L 641 1581 
L 2234 1581 
z
M 3609 0 
L 1484 0 
L 1484 331 
L 2234 331 
L 2234 1247 
L 197 1247 
L 197 1588 
L 2241 4750 
L 2859 4750 
L 2859 1581 
L 3750 1581 
L 3750 1247 
L 2859 1247 
L 2859 331 
L 3609 331 
L 3609 0 
z
" transform="scale(0.015625)"/>
       </defs>
       <use xlink:href="#DejaVuSerif-2212"/>
       <use xlink:href="#DejaVuSerif-34" transform="translate(83.789062 0)"/>
      </g>
     </g>
    </g>
    <g id="xtick_2">
     <g id="line2d_3">
      <path d="M 167.621731 410.069969 
L 167.621731 23.077969 
" clip-path="url(#p96bb3b2886)" style="fill: none; stroke-dasharray: 0.8,1.32; stroke-dashoffset: 0; stroke: #b0b0b0; stroke-opacity: 0.65; stroke-width: 0.8"/>
     </g>
     <g id="line2d_4">
      <g>
       <use xlink:href="#m2f9bd0cd55" x="167.621731" y="410.069969" style="stroke: #000000; stroke-width: 0.8"/>
      </g>
     </g>
     <g id="text_2">
      <!-- −3 -->
      <g transform="translate(159.882083 425.048328) scale(0.105 -0.105)">
       <defs>
        <path id="DejaVuSerif-33" d="M 622 4469 
Q 988 4606 1323 4678 
Q 1659 4750 1953 4750 
Q 2638 4750 3022 4454 
Q 3406 4159 3406 3634 
Q 3406 3213 3140 2930 
Q 2875 2647 2388 2547 
Q 2963 2466 3280 2130 
Q 3597 1794 3597 1259 
Q 3597 606 3158 257 
Q 2719 -91 1894 -91 
Q 1528 -91 1179 -12 
Q 831 66 488 225 
L 488 1131 
L 838 1131 
Q 869 681 1141 450 
Q 1413 219 1906 219 
Q 2384 219 2661 495 
Q 2938 772 2938 1253 
Q 2938 1803 2653 2086 
Q 2369 2369 1819 2369 
L 1522 2369 
L 1522 2688 
L 1678 2688 
Q 2225 2688 2498 2914 
Q 2772 3141 2772 3597 
Q 2772 4006 2547 4223 
Q 2322 4441 1900 4441 
Q 1478 4441 1245 4241 
Q 1013 4041 972 3647 
L 622 3647 
L 622 4469 
z
" transform="scale(0.015625)"/>
       </defs>
       <use xlink:href="#DejaVuSerif-2212"/>
       <use xlink:href="#DejaVuSerif-33" transform="translate(83.789062 0)"/>
      </g>
     </g>
    </g>
    <g id="xtick_3">
     <g id="line2d_5">
      <path d="M 262.389971 410.069969 
L 262.389971 23.077969 
" clip-path="url(#p96bb3b2886)" style="fill: none; stroke-dasharray: 0.8,1.32; stroke-dashoffset: 0; stroke: #b0b0b0; stroke-opacity: 0.65; stroke-width: 0.8"/>
     </g>
     <g id="line2d_6">
      <g>
       <use xlink:href="#m2f9bd0cd55" x="262.389971" y="410.069969" style="stroke: #000000; stroke-width: 0.8"/>
      </g>
     </g>
     <g id="text_3">
      <!-- −2 -->
      <g transform="translate(254.650323 425.048328) scale(0.105 -0.105)">
       <defs>
        <path id="DejaVuSerif-32" d="M 819 3553 
L 469 3553 
L 469 4384 
Q 803 4563 1142 4656 
Q 1481 4750 1806 4750 
Q 2534 4750 2956 4397 
Q 3378 4044 3378 3438 
Q 3378 2753 2422 1800 
Q 2347 1728 2309 1691 
L 1131 513 
L 3078 513 
L 3078 1088 
L 3444 1088 
L 3444 0 
L 434 0 
L 434 341 
L 1850 1753 
Q 2319 2222 2519 2614 
Q 2719 3006 2719 3438 
Q 2719 3909 2473 4175 
Q 2228 4441 1797 4441 
Q 1350 4441 1106 4219 
Q 863 3997 819 3553 
z
" transform="scale(0.015625)"/>
       </defs>
       <use xlink:href="#DejaVuSerif-2212"/>
       <use xlink:href="#DejaVuSerif-32" transform="translate(83.789062 0)"/>
      </g>
     </g>
    </g>
    <g id="xtick_4">
     <g id="line2d_7">
      <path d="M 357.158211 410.069969 
L 357.158211 23.077969 
" clip-path="url(#p96bb3b2886)" style="fill: none; stroke-dasharray: 0.8,1.32; stroke-dashoffset: 0; stroke: #b0b0b0; stroke-opacity: 0.65; stroke-width: 0.8"/>
     </g>
     <g id="line2d_8">
      <g>
       <use xlink:href="#m2f9bd0cd55" x="357.158211" y="410.069969" style="stroke: #000000; stroke-width: 0.8"/>
      </g>
     </g>
     <g id="text_4">
      <!-- −1 -->
      <g transform="translate(349.418562 425.048328) scale(0.105 -0.105)">
       <defs>
        <path id="DejaVuSerif-31" d="M 909 0 
L 909 331 
L 1722 331 
L 1722 4213 
L 781 3603 
L 781 4013 
L 1919 4750 
L 2350 4750 
L 2350 331 
L 3163 331 
L 3163 0 
L 909 0 
z
" transform="scale(0.015625)"/>
       </defs>
       <use xlink:href="#DejaVuSerif-2212"/>
       <use xlink:href="#DejaVuSerif-31" transform="translate(83.789062 0)"/>
      </g>
     </g>
    </g>
    <g id="xtick_5">
     <g id="line2d_9">
      <path d="M 451.926451 410.069969 
L 451.926451 23.077969 
" clip-path="url(#p96bb3b2886)" style="fill: none; stroke-dasharray: 0.8,1.32; stroke-dashoffset: 0; stroke: #b0b0b0; stroke-opacity: 0.65; stroke-width: 0.8"/>
     </g>
     <g id="line2d_10">
      <g>
       <use xlink:href="#m2f9bd0cd55" x="451.926451" y="410.069969" style="stroke: #000000; stroke-width: 0.8"/>
      </g>
     </g>
     <g id="text_5">
      <!-- 0 -->
      <g transform="translate(448.586138 425.048328) scale(0.105 -0.105)">
       <defs>
        <path id="DejaVuSerif-30" d="M 2034 219 
Q 2513 219 2750 744 
Q 2988 1269 2988 2328 
Q 2988 3391 2750 3916 
Q 2513 4441 2034 4441 
Q 1556 4441 1318 3916 
Q 1081 3391 1081 2328 
Q 1081 1269 1318 744 
Q 1556 219 2034 219 
z
M 2034 -91 
Q 1275 -91 848 546 
Q 422 1184 422 2328 
Q 422 3475 848 4112 
Q 1275 4750 2034 4750 
Q 2797 4750 3222 4112 
Q 3647 3475 3647 2328 
Q 3647 1184 3222 546 
Q 2797 -91 2034 -91 
z
" transform="scale(0.015625)"/>
       </defs>
       <use xlink:href="#DejaVuSerif-30"/>
      </g>
     </g>
    </g>
    <g id="xtick_6">
     <g id="line2d_11">
      <path d="M 546.69469 410.069969 
L 546.69469 23.077969 
" clip-path="url(#p96bb3b2886)" style="fill: none; stroke-dasharray: 0.8,1.32; stroke-dashoffset: 0; stroke: #b0b0b0; stroke-opacity: 0.65; stroke-width: 0.8"/>
     </g>
     <g id="line2d_12">
      <g>
       <use xlink:href="#m2f9bd0cd55" x="546.69469" y="410.069969" style="stroke: #000000; stroke-width: 0.8"/>
      </g>
     </g>
     <g id="text_6">
      <!-- 1 -->
      <g transform="translate(543.354378 425.048328) scale(0.105 -0.105)">
       <use xlink:href="#DejaVuSerif-31"/>
      </g>
     </g>
    </g>
    <g id="text_7">
     <!-- $E_b/N_0$ (dB) -->
     <g transform="translate(280.219091 439.970203) scale(0.115 -0.115)">
      <defs>
       <path id="DejaVuSans-Oblique-45" d="M 1081 4666 
L 4031 4666 
L 3928 4134 
L 1606 4134 
L 1338 2753 
L 3566 2753 
L 3463 2222 
L 1234 2222 
L 909 531 
L 3284 531 
L 3181 0 
L 172 0 
L 1081 4666 
z
" transform="scale(0.015625)"/>
       <path id="DejaVuSans-Oblique-62" d="M 3169 2138 
Q 3169 2591 2961 2847 
Q 2753 3103 2388 3103 
Q 2122 3103 1889 2973 
Q 1656 2844 1484 2597 
Q 1303 2338 1198 1995 
Q 1094 1653 1094 1313 
Q 1094 881 1298 636 
Q 1503 391 1863 391 
Q 2134 391 2365 517 
Q 2597 644 2772 891 
Q 2950 1147 3059 1487 
Q 3169 1828 3169 2138 
z
M 1381 2969 
Q 1594 3256 1914 3420 
Q 2234 3584 2584 3584 
Q 3122 3584 3439 3221 
Q 3756 2859 3756 2241 
Q 3756 1734 3570 1259 
Q 3384 784 3041 416 
Q 2816 172 2522 40 
Q 2228 -91 1906 -91 
Q 1566 -91 1316 65 
Q 1066 222 909 531 
L 806 0 
L 231 0 
L 1178 4863 
L 1753 4863 
L 1381 2969 
z
" transform="scale(0.015625)"/>
       <path id="DejaVuSans-2f" d="M 1625 4666 
L 2156 4666 
L 531 -594 
L 0 -594 
L 1625 4666 
z
" transform="scale(0.015625)"/>
       <path id="DejaVuSans-Oblique-4e" d="M 1081 4666 
L 1931 4666 
L 3219 666 
L 4000 4666 
L 4616 4666 
L 3706 0 
L 2853 0 
L 1569 4025 
L 788 0 
L 172 0 
L 1081 4666 
z
" transform="scale(0.015625)"/>
       <path id="DejaVuSans-30" d="M 2034 4250 
Q 1547 4250 1301 3770 
Q 1056 3291 1056 2328 
Q 1056 1369 1301 889 
Q 1547 409 2034 409 
Q 2525 409 2770 889 
Q 3016 1369 3016 2328 
Q 3016 3291 2770 3770 
Q 2525 4250 2034 4250 
z
M 2034 4750 
Q 2819 4750 3233 4129 
Q 3647 3509 3647 2328 
Q 3647 1150 3233 529 
Q 2819 -91 2034 -91 
Q 1250 -91 836 529 
Q 422 1150 422 2328 
Q 422 3509 836 4129 
Q 1250 4750 2034 4750 
z
" transform="scale(0.015625)"/>
       <path id="DejaVuSerif-20" transform="scale(0.015625)"/>
       <path id="DejaVuSerif-28" d="M 2041 -997 
Q 1281 -656 893 83 
Q 506 822 506 1931 
Q 506 3044 893 3783 
Q 1281 4522 2041 4863 
L 2041 4556 
Q 1559 4225 1350 3623 
Q 1141 3022 1141 1931 
Q 1141 844 1350 242 
Q 1559 -359 2041 -691 
L 2041 -997 
z
" transform="scale(0.015625)"/>
       <path id="DejaVuSerif-64" d="M 3359 331 
L 3909 331 
L 3909 0 
L 2784 0 
L 2784 519 
Q 2616 206 2355 57 
Q 2094 -91 1709 -91 
Q 1097 -91 708 395 
Q 319 881 319 1663 
Q 319 2444 706 2928 
Q 1094 3413 1709 3413 
Q 2094 3413 2355 3264 
Q 2616 3116 2784 2803 
L 2784 4531 
L 2241 4531 
L 2241 4863 
L 3359 4863 
L 3359 331 
z
M 2784 1497 
L 2784 1825 
Q 2784 2422 2554 2737 
Q 2325 3053 1888 3053 
Q 1444 3053 1217 2703 
Q 991 2353 991 1663 
Q 991 975 1217 622 
Q 1444 269 1888 269 
Q 2325 269 2554 583 
Q 2784 897 2784 1497 
z
" transform="scale(0.015625)"/>
       <path id="DejaVuSerif-42" d="M 1581 331 
L 2516 331 
Q 3078 331 3337 575 
Q 3597 819 3597 1350 
Q 3597 1878 3339 2120 
Q 3081 2363 2516 2363 
L 1581 2363 
L 1581 331 
z
M 1581 2694 
L 2375 2694 
Q 2888 2694 3123 2891 
Q 3359 3088 3359 3513 
Q 3359 3941 3123 4136 
Q 2888 4331 2375 4331 
L 1581 4331 
L 1581 2694 
z
M 353 0 
L 353 331 
L 947 331 
L 947 4331 
L 353 4331 
L 353 4666 
L 2656 4666 
Q 3363 4666 3720 4377 
Q 4078 4088 4078 3513 
Q 4078 3097 3829 2850 
Q 3581 2603 3103 2547 
Q 3697 2472 4005 2167 
Q 4313 1863 4313 1350 
Q 4313 656 3875 328 
Q 3438 0 2509 0 
L 353 0 
z
" transform="scale(0.015625)"/>
       <path id="DejaVuSerif-29" d="M 453 -997 
L 453 -691 
Q 934 -359 1145 242 
Q 1356 844 1356 1931 
Q 1356 3022 1145 3623 
Q 934 4225 453 4556 
L 453 4863 
Q 1216 4522 1603 3783 
Q 1991 3044 1991 1931 
Q 1991 822 1603 83 
Q 1216 -656 453 -997 
z
" transform="scale(0.015625)"/>
      </defs>
      <use xlink:href="#DejaVuSans-Oblique-45" transform="translate(0 0.015625)"/>
      <use xlink:href="#DejaVuSans-Oblique-62" transform="translate(63.183594 -16.390625) scale(0.7)"/>
      <use xlink:href="#DejaVuSans-2f" transform="translate(110.351562 0.015625)"/>
      <use xlink:href="#DejaVuSans-Oblique-4e" transform="translate(144.042969 0.015625)"/>
      <use xlink:href="#DejaVuSans-30" transform="translate(218.847656 -16.390625) scale(0.7)"/>
      <use xlink:href="#DejaVuSerif-20" transform="translate(266.118164 0.015625)"/>
      <use xlink:href="#DejaVuSerif-28" transform="translate(297.905273 0.015625)"/>
      <use xlink:href="#DejaVuSerif-64" transform="translate(336.918945 0.015625)"/>
      <use xlink:href="#DejaVuSerif-42" transform="translate(400.932617 0.015625)"/>
      <use xlink:href="#DejaVuSerif-29" transform="translate(474.418945 0.015625)"/>
     </g>
    </g>
   </g>
   <g id="matplotlib.axis_2">
    <g id="ytick_1">
     <g id="line2d_13">
      <path d="M 53.899844 400.898297 
L 565.648338 400.898297 
" clip-path="url(#p96bb3b2886)" style="fill: none; stroke-dasharray: 0.8,1.32; stroke-dashoffset: 0; stroke: #b0b0b0; stroke-opacity: 0.65; stroke-width: 0.8"/>
     </g>
     <g id="line2d_14">
      <defs>
       <path id="mf8e89bdb80" d="M 0 0 
L -3.5 0 
" style="stroke: #000000; stroke-width: 0.8"/>
      </defs>
      <g>
       <use xlink:href="#mf8e89bdb80" x="53.899844" y="400.898297" style="stroke: #000000; stroke-width: 0.8"/>
      </g>
     </g>
     <g id="text_8">
      <!-- $\mathdefault{10^{-5}}$ -->
      <g transform="translate(22.329844 404.887476) scale(0.105 -0.105)">
       <defs>
        <path id="DejaVuSerif-35" d="M 3219 4666 
L 3219 4153 
L 1081 4153 
L 1081 2816 
Q 1244 2928 1461 2984 
Q 1678 3041 1947 3041 
Q 2703 3041 3140 2622 
Q 3578 2203 3578 1478 
Q 3578 738 3136 323 
Q 2694 -91 1894 -91 
Q 1572 -91 1234 -12 
Q 897 66 544 225 
L 544 1131 
L 897 1131 
Q 925 688 1179 453 
Q 1434 219 1894 219 
Q 2388 219 2653 544 
Q 2919 869 2919 1478 
Q 2919 2084 2655 2407 
Q 2391 2731 1894 2731 
Q 1613 2731 1398 2631 
Q 1184 2531 1019 2322 
L 750 2322 
L 750 4666 
L 3219 4666 
z
" transform="scale(0.015625)"/>
       </defs>
       <use xlink:href="#DejaVuSerif-31" transform="translate(0 0.63125)"/>
       <use xlink:href="#DejaVuSerif-30" transform="translate(63.623047 0.63125)"/>
       <use xlink:href="#DejaVuSerif-2212" transform="translate(128.154453 36.965625) scale(0.7)"/>
       <use xlink:href="#DejaVuSerif-35" transform="translate(186.806797 36.965625) scale(0.7)"/>
      </g>
     </g>
    </g>
    <g id="ytick_2">
     <g id="line2d_15">
      <path d="M 53.899844 327.46003 
L 565.648338 327.46003 
" clip-path="url(#p96bb3b2886)" style="fill: none; stroke-dasharray: 0.8,1.32; stroke-dashoffset: 0; stroke: #b0b0b0; stroke-opacity: 0.65; stroke-width: 0.8"/>
     </g>
     <g id="line2d_16">
      <g>
       <use xlink:href="#mf8e89bdb80" x="53.899844" y="327.46003" style="stroke: #000000; stroke-width: 0.8"/>
      </g>
     </g>
     <g id="text_9">
      <!-- $\mathdefault{10^{-4}}$ -->
      <g transform="translate(22.329844 331.44921) scale(0.105 -0.105)">
       <use xlink:href="#DejaVuSerif-31" transform="translate(0 0.7125)"/>
       <use xlink:href="#DejaVuSerif-30" transform="translate(63.623047 0.7125)"/>
       <use xlink:href="#DejaVuSerif-2212" transform="translate(128.154453 37.046875) scale(0.7)"/>
       <use xlink:href="#DejaVuSerif-34" transform="translate(186.806797 37.046875) scale(0.7)"/>
      </g>
     </g>
    </g>
    <g id="ytick_3">
     <g id="line2d_17">
      <path d="M 53.899844 254.021763 
L 565.648338 254.021763 
" clip-path="url(#p96bb3b2886)" style="fill: none; stroke-dasharray: 0.8,1.32; stroke-dashoffset: 0; stroke: #b0b0b0; stroke-opacity: 0.65; stroke-width: 0.8"/>
     </g>
     <g id="line2d_18">
      <g>
       <use xlink:href="#mf8e89bdb80" x="53.899844" y="254.021763" style="stroke: #000000; stroke-width: 0.8"/>
      </g>
     </g>
     <g id="text_10">
      <!-- $\mathdefault{10^{-3}}$ -->
      <g transform="translate(22.329844 258.010943) scale(0.105 -0.105)">
       <use xlink:href="#DejaVuSerif-31" transform="translate(0 0.7125)"/>
       <use xlink:href="#DejaVuSerif-30" transform="translate(63.623047 0.7125)"/>
       <use xlink:href="#DejaVuSerif-2212" transform="translate(128.154453 37.046875) scale(0.7)"/>
       <use xlink:href="#DejaVuSerif-33" transform="translate(186.806797 37.046875) scale(0.7)"/>
      </g>
     </g>
    </g>
    <g id="ytick_4">
     <g id="line2d_19">
      <path d="M 53.899844 180.583497 
L 565.648338 180.583497 
" clip-path="url(#p96bb3b2886)" style="fill: none; stroke-dasharray: 0.8,1.32; stroke-dashoffset: 0; stroke: #b0b0b0; stroke-opacity: 0.65; stroke-width: 0.8"/>
     </g>
     <g id="line2d_20">
      <g>
       <use xlink:href="#mf8e89bdb80" x="53.899844" y="180.583497" style="stroke: #000000; stroke-width: 0.8"/>
      </g>
     </g>
     <g id="text_11">
      <!-- $\mathdefault{10^{-2}}$ -->
      <g transform="translate(22.329844 184.572676) scale(0.105 -0.105)">
       <use xlink:href="#DejaVuSerif-31" transform="translate(0 0.7125)"/>
       <use xlink:href="#DejaVuSerif-30" transform="translate(63.623047 0.7125)"/>
       <use xlink:href="#DejaVuSerif-2212" transform="translate(128.154453 37.046875) scale(0.7)"/>
       <use xlink:href="#DejaVuSerif-32" transform="translate(186.806797 37.046875) scale(0.7)"/>
      </g>
     </g>
    </g>
    <g id="ytick_5">
     <g id="line2d_21">
      <path d="M 53.899844 107.14523 
L 565.648338 107.14523 
" clip-path="url(#p96bb3b2886)" style="fill: none; stroke-dasharray: 0.8,1.32; stroke-dashoffset: 0; stroke: #b0b0b0; stroke-opacity: 0.65; stroke-width: 0.8"/>
     </g>
     <g id="line2d_22">
      <g>
       <use xlink:href="#mf8e89bdb80" x="53.899844" y="107.14523" style="stroke: #000000; stroke-width: 0.8"/>
      </g>
     </g>
     <g id="text_12">
      <!-- $\mathdefault{10^{-1}}$ -->
      <g transform="translate(22.329844 111.13441) scale(0.105 -0.105)">
       <use xlink:href="#DejaVuSerif-31" transform="translate(0 0.7125)"/>
       <use xlink:href="#DejaVuSerif-30" transform="translate(63.623047 0.7125)"/>
       <use xlink:href="#DejaVuSerif-2212" transform="translate(128.154453 37.046875) scale(0.7)"/>
       <use xlink:href="#DejaVuSerif-31" transform="translate(186.806797 37.046875) scale(0.7)"/>
      </g>
     </g>
    </g>
    <g id="ytick_6">
     <g id="line2d_23">
      <path d="M 53.899844 33.706963 
L 565.648338 33.706963 
" clip-path="url(#p96bb3b2886)" style="fill: none; stroke-dasharray: 0.8,1.32; stroke-dashoffset: 0; stroke: #b0b0b0; stroke-opacity: 0.65; stroke-width: 0.8"/>
     </g>
     <g id="line2d_24">
      <g>
       <use xlink:href="#mf8e89bdb80" x="53.899844" y="33.706963" style="stroke: #000000; stroke-width: 0.8"/>
      </g>
     </g>
     <g id="text_13">
      <!-- $\mathdefault{10^{0}}$ -->
      <g transform="translate(28.419844 37.696143) scale(0.105 -0.105)">
       <use xlink:href="#DejaVuSerif-31" transform="translate(0 0.7125)"/>
       <use xlink:href="#DejaVuSerif-30" transform="translate(63.623047 0.7125)"/>
       <use xlink:href="#DejaVuSerif-30" transform="translate(128.154453 37.046875) scale(0.7)"/>
      </g>
     </g>
    </g>
    <g id="ytick_7">
     <g id="line2d_25">
      <defs>
       <path id="m62e8a4a1bf" d="M 0 0 
L -2 0 
" style="stroke: #000000; stroke-width: 0.6"/>
      </defs>
      <g>
       <use xlink:href="#m62e8a4a1bf" x="53.899844" y="408.0152" style="stroke: #000000; stroke-width: 0.6"/>
      </g>
     </g>
    </g>
    <g id="ytick_8">
     <g id="line2d_26">
      <g>
       <use xlink:href="#m62e8a4a1bf" x="53.899844" y="404.258647" style="stroke: #000000; stroke-width: 0.6"/>
      </g>
     </g>
    </g>
    <g id="ytick_9">
     <g id="line2d_27">
      <g>
       <use xlink:href="#m62e8a4a1bf" x="53.899844" y="378.791176" style="stroke: #000000; stroke-width: 0.6"/>
      </g>
     </g>
    </g>
    <g id="ytick_10">
     <g id="line2d_28">
      <g>
       <use xlink:href="#m62e8a4a1bf" x="53.899844" y="365.859339" style="stroke: #000000; stroke-width: 0.6"/>
      </g>
     </g>
    </g>
    <g id="ytick_11">
     <g id="line2d_29">
      <g>
       <use xlink:href="#m62e8a4a1bf" x="53.899844" y="356.684054" style="stroke: #000000; stroke-width: 0.6"/>
      </g>
     </g>
    </g>
    <g id="ytick_12">
     <g id="line2d_30">
      <g>
       <use xlink:href="#m62e8a4a1bf" x="53.899844" y="349.567151" style="stroke: #000000; stroke-width: 0.6"/>
      </g>
     </g>
    </g>
    <g id="ytick_13">
     <g id="line2d_31">
      <g>
       <use xlink:href="#m62e8a4a1bf" x="53.899844" y="343.752218" style="stroke: #000000; stroke-width: 0.6"/>
      </g>
     </g>
    </g>
    <g id="ytick_14">
     <g id="line2d_32">
      <g>
       <use xlink:href="#m62e8a4a1bf" x="53.899844" y="338.835761" style="stroke: #000000; stroke-width: 0.6"/>
      </g>
     </g>
    </g>
    <g id="ytick_15">
     <g id="line2d_33">
      <g>
       <use xlink:href="#m62e8a4a1bf" x="53.899844" y="334.576933" style="stroke: #000000; stroke-width: 0.6"/>
      </g>
     </g>
    </g>
    <g id="ytick_16">
     <g id="line2d_34">
      <g>
       <use xlink:href="#m62e8a4a1bf" x="53.899844" y="330.820381" style="stroke: #000000; stroke-width: 0.6"/>
      </g>
     </g>
    </g>
    <g id="ytick_17">
     <g id="line2d_35">
      <g>
       <use xlink:href="#m62e8a4a1bf" x="53.899844" y="305.352909" style="stroke: #000000; stroke-width: 0.6"/>
      </g>
     </g>
    </g>
    <g id="ytick_18">
     <g id="line2d_36">
      <g>
       <use xlink:href="#m62e8a4a1bf" x="53.899844" y="292.421072" style="stroke: #000000; stroke-width: 0.6"/>
      </g>
     </g>
    </g>
    <g id="ytick_19">
     <g id="line2d_37">
      <g>
       <use xlink:href="#m62e8a4a1bf" x="53.899844" y="283.245788" style="stroke: #000000; stroke-width: 0.6"/>
      </g>
     </g>
    </g>
    <g id="ytick_20">
     <g id="line2d_38">
      <g>
       <use xlink:href="#m62e8a4a1bf" x="53.899844" y="276.128884" style="stroke: #000000; stroke-width: 0.6"/>
      </g>
     </g>
    </g>
    <g id="ytick_21">
     <g id="line2d_39">
      <g>
       <use xlink:href="#m62e8a4a1bf" x="53.899844" y="270.313951" style="stroke: #000000; stroke-width: 0.6"/>
      </g>
     </g>
    </g>
    <g id="ytick_22">
     <g id="line2d_40">
      <g>
       <use xlink:href="#m62e8a4a1bf" x="53.899844" y="265.397495" style="stroke: #000000; stroke-width: 0.6"/>
      </g>
     </g>
    </g>
    <g id="ytick_23">
     <g id="line2d_41">
      <g>
       <use xlink:href="#m62e8a4a1bf" x="53.899844" y="261.138667" style="stroke: #000000; stroke-width: 0.6"/>
      </g>
     </g>
    </g>
    <g id="ytick_24">
     <g id="line2d_42">
      <g>
       <use xlink:href="#m62e8a4a1bf" x="53.899844" y="257.382114" style="stroke: #000000; stroke-width: 0.6"/>
      </g>
     </g>
    </g>
    <g id="ytick_25">
     <g id="line2d_43">
      <g>
       <use xlink:href="#m62e8a4a1bf" x="53.899844" y="231.914642" style="stroke: #000000; stroke-width: 0.6"/>
      </g>
     </g>
    </g>
    <g id="ytick_26">
     <g id="line2d_44">
      <g>
       <use xlink:href="#m62e8a4a1bf" x="53.899844" y="218.982805" style="stroke: #000000; stroke-width: 0.6"/>
      </g>
     </g>
    </g>
    <g id="ytick_27">
     <g id="line2d_45">
      <g>
       <use xlink:href="#m62e8a4a1bf" x="53.899844" y="209.807521" style="stroke: #000000; stroke-width: 0.6"/>
      </g>
     </g>
    </g>
    <g id="ytick_28">
     <g id="line2d_46">
      <g>
       <use xlink:href="#m62e8a4a1bf" x="53.899844" y="202.690618" style="stroke: #000000; stroke-width: 0.6"/>
      </g>
     </g>
    </g>
    <g id="ytick_29">
     <g id="line2d_47">
      <g>
       <use xlink:href="#m62e8a4a1bf" x="53.899844" y="196.875684" style="stroke: #000000; stroke-width: 0.6"/>
      </g>
     </g>
    </g>
    <g id="ytick_30">
     <g id="line2d_48">
      <g>
       <use xlink:href="#m62e8a4a1bf" x="53.899844" y="191.959228" style="stroke: #000000; stroke-width: 0.6"/>
      </g>
     </g>
    </g>
    <g id="ytick_31">
     <g id="line2d_49">
      <g>
       <use xlink:href="#m62e8a4a1bf" x="53.899844" y="187.7004" style="stroke: #000000; stroke-width: 0.6"/>
      </g>
     </g>
    </g>
    <g id="ytick_32">
     <g id="line2d_50">
      <g>
       <use xlink:href="#m62e8a4a1bf" x="53.899844" y="183.943848" style="stroke: #000000; stroke-width: 0.6"/>
      </g>
     </g>
    </g>
    <g id="ytick_33">
     <g id="line2d_51">
      <g>
       <use xlink:href="#m62e8a4a1bf" x="53.899844" y="158.476376" style="stroke: #000000; stroke-width: 0.6"/>
      </g>
     </g>
    </g>
    <g id="ytick_34">
     <g id="line2d_52">
      <g>
       <use xlink:href="#m62e8a4a1bf" x="53.899844" y="145.544539" style="stroke: #000000; stroke-width: 0.6"/>
      </g>
     </g>
    </g>
    <g id="ytick_35">
     <g id="line2d_53">
      <g>
       <use xlink:href="#m62e8a4a1bf" x="53.899844" y="136.369255" style="stroke: #000000; stroke-width: 0.6"/>
      </g>
     </g>
    </g>
    <g id="ytick_36">
     <g id="line2d_54">
      <g>
       <use xlink:href="#m62e8a4a1bf" x="53.899844" y="129.252351" style="stroke: #000000; stroke-width: 0.6"/>
      </g>
     </g>
    </g>
    <g id="ytick_37">
     <g id="line2d_55">
      <g>
       <use xlink:href="#m62e8a4a1bf" x="53.899844" y="123.437418" style="stroke: #000000; stroke-width: 0.6"/>
      </g>
     </g>
    </g>
    <g id="ytick_38">
     <g id="line2d_56">
      <g>
       <use xlink:href="#m62e8a4a1bf" x="53.899844" y="118.520962" style="stroke: #000000; stroke-width: 0.6"/>
      </g>
     </g>
    </g>
    <g id="ytick_39">
     <g id="line2d_57">
      <g>
       <use xlink:href="#m62e8a4a1bf" x="53.899844" y="114.262133" style="stroke: #000000; stroke-width: 0.6"/>
      </g>
     </g>
    </g>
    <g id="ytick_40">
     <g id="line2d_58">
      <g>
       <use xlink:href="#m62e8a4a1bf" x="53.899844" y="110.505581" style="stroke: #000000; stroke-width: 0.6"/>
      </g>
     </g>
    </g>
    <g id="ytick_41">
     <g id="line2d_59">
      <g>
       <use xlink:href="#m62e8a4a1bf" x="53.899844" y="85.038109" style="stroke: #000000; stroke-width: 0.6"/>
      </g>
     </g>
    </g>
    <g id="ytick_42">
     <g id="line2d_60">
      <g>
       <use xlink:href="#m62e8a4a1bf" x="53.899844" y="72.106272" style="stroke: #000000; stroke-width: 0.6"/>
      </g>
     </g>
    </g>
    <g id="ytick_43">
     <g id="line2d_61">
      <g>
       <use xlink:href="#m62e8a4a1bf" x="53.899844" y="62.930988" style="stroke: #000000; stroke-width: 0.6"/>
      </g>
     </g>
    </g>
    <g id="ytick_44">
     <g id="line2d_62">
      <g>
       <use xlink:href="#m62e8a4a1bf" x="53.899844" y="55.814085" style="stroke: #000000; stroke-width: 0.6"/>
      </g>
     </g>
    </g>
    <g id="ytick_45">
     <g id="line2d_63">
      <g>
       <use xlink:href="#m62e8a4a1bf" x="53.899844" y="49.999151" style="stroke: #000000; stroke-width: 0.6"/>
      </g>
     </g>
    </g>
    <g id="ytick_46">
     <g id="line2d_64">
      <g>
       <use xlink:href="#m62e8a4a1bf" x="53.899844" y="45.082695" style="stroke: #000000; stroke-width: 0.6"/>
      </g>
     </g>
    </g>
    <g id="ytick_47">
     <g id="line2d_65">
      <g>
       <use xlink:href="#m62e8a4a1bf" x="53.899844" y="40.823867" style="stroke: #000000; stroke-width: 0.6"/>
      </g>
     </g>
    </g>
    <g id="ytick_48">
     <g id="line2d_66">
      <g>
       <use xlink:href="#m62e8a4a1bf" x="53.899844" y="37.067314" style="stroke: #000000; stroke-width: 0.6"/>
      </g>
     </g>
    </g>
    <g id="text_14">
     <!-- BLER -->
     <g transform="translate(15.938203 233.14475) rotate(-90) scale(0.115 -0.115)">
      <defs>
       <path id="DejaVuSerif-4c" d="M 353 0 
L 353 331 
L 947 331 
L 947 4331 
L 353 4331 
L 353 4666 
L 2175 4666 
L 2175 4331 
L 1581 4331 
L 1581 384 
L 3713 384 
L 3713 1166 
L 4097 1166 
L 4097 0 
L 353 0 
z
" transform="scale(0.015625)"/>
       <path id="DejaVuSerif-45" d="M 353 0 
L 353 331 
L 947 331 
L 947 4331 
L 353 4331 
L 353 4666 
L 4109 4666 
L 4109 3628 
L 3725 3628 
L 3725 4281 
L 1581 4281 
L 1581 2719 
L 3109 2719 
L 3109 3303 
L 3494 3303 
L 3494 1753 
L 3109 1753 
L 3109 2338 
L 1581 2338 
L 1581 384 
L 3775 384 
L 3775 1038 
L 4159 1038 
L 4159 0 
L 353 0 
z
" transform="scale(0.015625)"/>
       <path id="DejaVuSerif-52" d="M 3066 2316 
Q 3284 2256 3442 2114 
Q 3600 1972 3725 1716 
L 4403 331 
L 4972 331 
L 4972 0 
L 3872 0 
L 3144 1484 
Q 2934 1916 2759 2042 
Q 2584 2169 2278 2169 
L 1581 2169 
L 1581 331 
L 2241 331 
L 2241 0 
L 353 0 
L 353 331 
L 947 331 
L 947 4331 
L 353 4331 
L 353 4666 
L 2719 4666 
Q 3400 4666 3770 4341 
Q 4141 4016 4141 3419 
Q 4141 2938 3870 2661 
Q 3600 2384 3066 2316 
z
M 1581 2503 
L 2503 2503 
Q 2975 2503 3200 2726 
Q 3425 2950 3425 3419 
Q 3425 3888 3200 4109 
Q 2975 4331 2503 4331 
L 1581 4331 
L 1581 2503 
z
" transform="scale(0.015625)"/>
      </defs>
      <use xlink:href="#DejaVuSerif-42"/>
      <use xlink:href="#DejaVuSerif-4c" transform="translate(73.486328 0)"/>
      <use xlink:href="#DejaVuSerif-45" transform="translate(139.892578 0)"/>
      <use xlink:href="#DejaVuSerif-52" transform="translate(212.890625 0)"/>
     </g>
    </g>
   </g>
   <g id="line2d_67">
    <path d="M 72.853492 103.984841 
L 167.621731 143.977888 
L 262.389971 192.413326 
L 357.158211 241.925185 
L 451.926451 296.613492 
L 546.69469 359.640913 
" clip-path="url(#p96bb3b2886)" style="fill: none; stroke: #1f77b4; stroke-width: 2; stroke-linecap: square"/>
   </g>
   <g id="line2d_68">
    <path d="M 72.853492 40.668514 
L 167.621731 63.055817 
L 262.389971 92.752352 
L 357.158211 129.252351 
L 451.926451 164.793585 
L 546.69469 215.747284 
" clip-path="url(#p96bb3b2886)" style="fill: none; stroke-dasharray: 7.4,3.2; stroke-dashoffset: 0; stroke: #7f7f7f; stroke-width: 2"/>
   </g>
   <g id="line2d_69">
    <path d="M 72.853492 75.460471 
L 167.621731 105.684188 
L 262.389971 147.308965 
L 357.158211 193.515334 
L 451.926451 238.485987 
L 546.69469 287.758751 
" clip-path="url(#p96bb3b2886)" style="fill: none; stroke-dasharray: 12.8,3.2,2,3.2; stroke-dashoffset: 0; stroke: #bcbd22; stroke-width: 2"/>
   </g>
   <g id="line2d_70">
    <path d="M 72.853492 145.878509 
L 167.621731 198.348841 
L 262.389971 261.574534 
L 357.158211 336.414595 
L 451.926451 392.479423 
" clip-path="url(#p96bb3b2886)" style="fill: none; stroke-dasharray: 2,3.3; stroke-dashoffset: 0; stroke: #17becf; stroke-width: 2"/>
   </g>
   <g id="patch_3">
    <path d="M 53.899844 410.069969 
L 53.899844 23.077969 
" style="fill: none; stroke: #000000; stroke-width: 0.8; stroke-linejoin: miter; stroke-linecap: square"/>
   </g>
   <g id="patch_4">
    <path d="M 565.648338 410.069969 
L 565.648338 23.077969 
" style="fill: none; stroke: #000000; stroke-width: 0.8; stroke-linejoin: miter; stroke-linecap: square"/>
   </g>
   <g id="patch_5">
    <path d="M 53.899844 410.069969 
L 565.648338 410.069969 
" style="fill: none; stroke: #000000; stroke-width: 0.8; stroke-linejoin: miter; stroke-linecap: square"/>
   </g>
   <g id="patch_6">
    <path d="M 53.899844 23.077969 
L 565.648338 23.077969 
" style="fill: none; stroke: #000000; stroke-width: 0.8; stroke-linejoin: miter; stroke-linecap: square"/>
   </g>
   <g id="text_15">
    <!-- Main UPAIR vs benchmarks (3 users) -->
    <g transform="translate(186.766669 17.077969) scale(0.13 -0.13)">
     <defs>
      <path id="DejaVuSerif-4d" d="M 353 0 
L 353 331 
L 947 331 
L 947 4331 
L 319 4331 
L 319 4666 
L 1678 4666 
L 3316 1344 
L 4953 4666 
L 6228 4666 
L 6228 4331 
L 5606 4331 
L 5606 331 
L 6203 331 
L 6203 0 
L 4378 0 
L 4378 331 
L 4972 331 
L 4972 3938 
L 3372 684 
L 2931 684 
L 1331 3938 
L 1331 331 
L 1925 331 
L 1925 0 
L 353 0 
z
" transform="scale(0.015625)"/>
      <path id="DejaVuSerif-61" d="M 2547 1044 
L 2547 1747 
L 1806 1747 
Q 1378 1747 1168 1562 
Q 959 1378 959 997 
Q 959 650 1171 447 
Q 1384 244 1747 244 
Q 2106 244 2326 466 
Q 2547 688 2547 1044 
z
M 3122 2075 
L 3122 331 
L 3634 331 
L 3634 0 
L 2547 0 
L 2547 359 
Q 2356 128 2106 18 
Q 1856 -91 1522 -91 
Q 969 -91 644 203 
Q 319 497 319 997 
Q 319 1513 691 1797 
Q 1063 2081 1741 2081 
L 2547 2081 
L 2547 2309 
Q 2547 2688 2317 2895 
Q 2088 3103 1672 3103 
Q 1328 3103 1125 2947 
Q 922 2791 872 2484 
L 575 2484 
L 575 3156 
Q 875 3284 1158 3348 
Q 1441 3413 1709 3413 
Q 2400 3413 2761 3070 
Q 3122 2728 3122 2075 
z
" transform="scale(0.015625)"/>
      <path id="DejaVuSerif-69" d="M 622 4353 
Q 622 4497 726 4603 
Q 831 4709 978 4709 
Q 1122 4709 1226 4603 
Q 1331 4497 1331 4353 
Q 1331 4206 1228 4103 
Q 1125 4000 978 4000 
Q 831 4000 726 4103 
Q 622 4206 622 4353 
z
M 1356 331 
L 1900 331 
L 1900 0 
L 231 0 
L 231 331 
L 781 331 
L 781 2988 
L 231 2988 
L 231 3322 
L 1356 3322 
L 1356 331 
z
" transform="scale(0.015625)"/>
      <path id="DejaVuSerif-6e" d="M 263 0 
L 263 331 
L 781 331 
L 781 2988 
L 231 2988 
L 231 3322 
L 1356 3322 
L 1356 2731 
Q 1516 3069 1770 3241 
Q 2025 3413 2363 3413 
Q 2913 3413 3172 3097 
Q 3431 2781 3431 2113 
L 3431 331 
L 3944 331 
L 3944 0 
L 2356 0 
L 2356 331 
L 2853 331 
L 2853 1931 
Q 2853 2541 2703 2767 
Q 2553 2994 2175 2994 
Q 1775 2994 1565 2701 
Q 1356 2409 1356 1850 
L 1356 331 
L 1856 331 
L 1856 0 
L 263 0 
z
" transform="scale(0.015625)"/>
      <path id="DejaVuSerif-55" d="M 897 4331 
L 300 4331 
L 300 4666 
L 2125 4666 
L 2125 4331 
L 1528 4331 
L 1528 1919 
Q 1528 1025 1820 672 
Q 2113 319 2828 319 
Q 3544 319 3836 672 
Q 4128 1025 4128 1919 
L 4128 4331 
L 3531 4331 
L 3531 4666 
L 5106 4666 
L 5106 4331 
L 4513 4331 
L 4513 1856 
Q 4513 791 4103 350 
Q 3694 -91 2713 -91 
Q 1731 -91 1314 353 
Q 897 797 897 1856 
L 897 4331 
z
" transform="scale(0.015625)"/>
      <path id="DejaVuSerif-50" d="M 1581 2375 
L 2406 2375 
Q 2872 2375 3115 2626 
Q 3359 2878 3359 3353 
Q 3359 3831 3115 4081 
Q 2872 4331 2406 4331 
L 1581 4331 
L 1581 2375 
z
M 353 0 
L 353 331 
L 947 331 
L 947 4331 
L 353 4331 
L 353 4666 
L 2559 4666 
Q 3259 4666 3668 4311 
Q 4078 3956 4078 3353 
Q 4078 2753 3668 2397 
Q 3259 2041 2559 2041 
L 1581 2041 
L 1581 331 
L 2303 331 
L 2303 0 
L 353 0 
z
" transform="scale(0.015625)"/>
      <path id="DejaVuSerif-41" d="M 1281 1691 
L 2994 1691 
L 2138 3909 
L 1281 1691 
z
M -38 0 
L -38 331 
L 372 331 
L 2034 4666 
L 2559 4666 
L 4225 331 
L 4684 331 
L 4684 0 
L 2988 0 
L 2988 331 
L 3506 331 
L 3116 1356 
L 1153 1356 
L 763 331 
L 1275 331 
L 1275 0 
L -38 0 
z
" transform="scale(0.015625)"/>
      <path id="DejaVuSerif-49" d="M 1581 331 
L 2175 331 
L 2175 0 
L 353 0 
L 353 331 
L 947 331 
L 947 4331 
L 353 4331 
L 353 4666 
L 2175 4666 
L 2175 4331 
L 1581 4331 
L 1581 331 
z
" transform="scale(0.015625)"/>
      <path id="DejaVuSerif-76" d="M 1581 0 
L 359 2988 
L -19 2988 
L -19 3322 
L 1509 3322 
L 1509 2988 
L 978 2988 
L 1913 703 
L 2847 2988 
L 2350 2988 
L 2350 3322 
L 3597 3322 
L 3597 2988 
L 3225 2988 
L 2003 0 
L 1581 0 
z
" transform="scale(0.015625)"/>
      <path id="DejaVuSerif-73" d="M 359 184 
L 359 959 
L 691 959 
Q 703 588 923 403 
Q 1144 219 1575 219 
Q 1963 219 2166 364 
Q 2369 509 2369 788 
Q 2369 1006 2220 1140 
Q 2072 1275 1594 1428 
L 1178 1569 
Q 750 1706 558 1912 
Q 366 2119 366 2438 
Q 366 2894 700 3153 
Q 1034 3413 1625 3413 
Q 1888 3413 2178 3344 
Q 2469 3275 2778 3144 
L 2778 2419 
L 2447 2419 
Q 2434 2741 2221 2922 
Q 2009 3103 1644 3103 
Q 1281 3103 1095 2975 
Q 909 2847 909 2591 
Q 909 2381 1050 2254 
Q 1191 2128 1613 1997 
L 2069 1856 
Q 2541 1709 2748 1489 
Q 2956 1269 2956 922 
Q 2956 450 2595 179 
Q 2234 -91 1600 -91 
Q 1278 -91 972 -22 
Q 666 47 359 184 
z
" transform="scale(0.015625)"/>
      <path id="DejaVuSerif-62" d="M 738 331 
L 738 4531 
L 184 4531 
L 184 4863 
L 1313 4863 
L 1313 2803 
Q 1481 3116 1742 3264 
Q 2003 3413 2388 3413 
Q 3000 3413 3387 2928 
Q 3775 2444 3775 1663 
Q 3775 881 3387 395 
Q 3000 -91 2388 -91 
Q 2003 -91 1742 57 
Q 1481 206 1313 519 
L 1313 0 
L 184 0 
L 184 331 
L 738 331 
z
M 1313 1497 
Q 1313 897 1542 583 
Q 1772 269 2209 269 
Q 2650 269 2876 622 
Q 3103 975 3103 1663 
Q 3103 2353 2876 2703 
Q 2650 3053 2209 3053 
Q 1772 3053 1542 2737 
Q 1313 2422 1313 1825 
L 1313 1497 
z
" transform="scale(0.015625)"/>
      <path id="DejaVuSerif-65" d="M 3469 1600 
L 991 1600 
L 991 1575 
Q 991 903 1244 561 
Q 1497 219 1991 219 
Q 2369 219 2611 417 
Q 2853 616 2950 1006 
L 3413 1006 
Q 3275 459 2904 184 
Q 2534 -91 1931 -91 
Q 1203 -91 761 389 
Q 319 869 319 1663 
Q 319 2450 753 2931 
Q 1188 3413 1894 3413 
Q 2647 3413 3050 2948 
Q 3453 2484 3469 1600 
z
M 2791 1931 
Q 2772 2513 2545 2808 
Q 2319 3103 1894 3103 
Q 1497 3103 1269 2806 
Q 1041 2509 991 1931 
L 2791 1931 
z
" transform="scale(0.015625)"/>
      <path id="DejaVuSerif-63" d="M 3291 997 
Q 3169 466 2822 187 
Q 2475 -91 1925 -91 
Q 1200 -91 759 389 
Q 319 869 319 1663 
Q 319 2459 759 2936 
Q 1200 3413 1925 3413 
Q 2241 3413 2553 3339 
Q 2866 3266 3181 3116 
L 3181 2266 
L 2847 2266 
Q 2781 2703 2561 2903 
Q 2341 3103 1931 3103 
Q 1466 3103 1228 2742 
Q 991 2381 991 1663 
Q 991 944 1227 581 
Q 1463 219 1931 219 
Q 2303 219 2525 412 
Q 2747 606 2828 997 
L 3291 997 
z
" transform="scale(0.015625)"/>
      <path id="DejaVuSerif-68" d="M 263 0 
L 263 331 
L 781 331 
L 781 4531 
L 231 4531 
L 231 4863 
L 1356 4863 
L 1356 2731 
Q 1516 3069 1770 3241 
Q 2025 3413 2363 3413 
Q 2913 3413 3172 3097 
Q 3431 2781 3431 2113 
L 3431 331 
L 3944 331 
L 3944 0 
L 2356 0 
L 2356 331 
L 2853 331 
L 2853 1931 
Q 2853 2541 2704 2764 
Q 2556 2988 2175 2988 
Q 1775 2988 1565 2697 
Q 1356 2406 1356 1850 
L 1356 331 
L 1856 331 
L 1856 0 
L 263 0 
z
" transform="scale(0.015625)"/>
      <path id="DejaVuSerif-6d" d="M 3316 2675 
Q 3481 3041 3739 3227 
Q 3997 3413 4341 3413 
Q 4863 3413 5119 3089 
Q 5375 2766 5375 2113 
L 5375 331 
L 5894 331 
L 5894 0 
L 4300 0 
L 4300 331 
L 4800 331 
L 4800 2047 
Q 4800 2556 4650 2772 
Q 4500 2988 4153 2988 
Q 3769 2988 3567 2697 
Q 3366 2406 3366 1850 
L 3366 331 
L 3866 331 
L 3866 0 
L 2291 0 
L 2291 331 
L 2791 331 
L 2791 2069 
Q 2791 2566 2641 2777 
Q 2491 2988 2144 2988 
Q 1759 2988 1557 2697 
Q 1356 2406 1356 1850 
L 1356 331 
L 1856 331 
L 1856 0 
L 263 0 
L 263 331 
L 781 331 
L 781 2994 
L 231 2994 
L 231 3322 
L 1356 3322 
L 1356 2731 
Q 1516 3063 1762 3238 
Q 2009 3413 2322 3413 
Q 2709 3413 2968 3220 
Q 3228 3028 3316 2675 
z
" transform="scale(0.015625)"/>
      <path id="DejaVuSerif-72" d="M 3059 3328 
L 3059 2497 
L 2728 2497 
Q 2713 2744 2591 2866 
Q 2469 2988 2234 2988 
Q 1809 2988 1582 2694 
Q 1356 2400 1356 1850 
L 1356 331 
L 2022 331 
L 2022 0 
L 263 0 
L 263 331 
L 781 331 
L 781 2994 
L 231 2994 
L 231 3322 
L 1356 3322 
L 1356 2731 
Q 1525 3078 1790 3245 
Q 2056 3413 2438 3413 
Q 2578 3413 2733 3391 
Q 2888 3369 3059 3328 
z
" transform="scale(0.015625)"/>
      <path id="DejaVuSerif-6b" d="M 1831 0 
L 219 0 
L 219 331 
L 738 331 
L 738 4531 
L 184 4531 
L 184 4863 
L 1313 4863 
L 1313 1697 
L 2713 2988 
L 2234 2988 
L 2234 3322 
L 3738 3322 
L 3738 2988 
L 3169 2988 
L 2181 2075 
L 3444 331 
L 3922 331 
L 3922 0 
L 2284 0 
L 2284 331 
L 2759 331 
L 1766 1697 
L 1313 1275 
L 1313 331 
L 1831 331 
L 1831 0 
z
" transform="scale(0.015625)"/>
      <path id="DejaVuSerif-75" d="M 2266 3322 
L 3341 3322 
L 3341 331 
L 3884 331 
L 3884 0 
L 2766 0 
L 2766 588 
Q 2606 256 2353 82 
Q 2100 -91 1766 -91 
Q 1213 -91 952 223 
Q 691 538 691 1209 
L 691 2988 
L 172 2988 
L 172 3322 
L 1269 3322 
L 1269 1388 
Q 1269 781 1417 556 
Q 1566 331 1947 331 
Q 2347 331 2556 625 
Q 2766 919 2766 1478 
L 2766 2988 
L 2266 2988 
L 2266 3322 
z
" transform="scale(0.015625)"/>
     </defs>
     <use xlink:href="#DejaVuSerif-4d"/>
     <use xlink:href="#DejaVuSerif-61" transform="translate(102.392578 0)"/>
     <use xlink:href="#DejaVuSerif-69" transform="translate(162.011719 0)"/>
     <use xlink:href="#DejaVuSerif-6e" transform="translate(193.994141 0)"/>
     <use xlink:href="#DejaVuSerif-20" transform="translate(258.398438 0)"/>
     <use xlink:href="#DejaVuSerif-55" transform="translate(290.185547 0)"/>
     <use xlink:href="#DejaVuSerif-50" transform="translate(374.462891 0)"/>
     <use xlink:href="#DejaVuSerif-41" transform="translate(432.623047 0)"/>
     <use xlink:href="#DejaVuSerif-49" transform="translate(504.839844 0)"/>
     <use xlink:href="#DejaVuSerif-52" transform="translate(544.341797 0)"/>
     <use xlink:href="#DejaVuSerif-20" transform="translate(619.634766 0)"/>
     <use xlink:href="#DejaVuSerif-76" transform="translate(651.421875 0)"/>
     <use xlink:href="#DejaVuSerif-73" transform="translate(707.916016 0)"/>
     <use xlink:href="#DejaVuSerif-20" transform="translate(759.234375 0)"/>
     <use xlink:href="#DejaVuSerif-62" transform="translate(791.021484 0)"/>
     <use xlink:href="#DejaVuSerif-65" transform="translate(855.035156 0)"/>
     <use xlink:href="#DejaVuSerif-6e" transform="translate(914.214844 0)"/>
     <use xlink:href="#DejaVuSerif-63" transform="translate(978.619141 0)"/>
     <use xlink:href="#DejaVuSerif-68" transform="translate(1034.625 0)"/>
     <use xlink:href="#DejaVuSerif-6d" transform="translate(1099.029297 0)"/>
     <use xlink:href="#DejaVuSerif-61" transform="translate(1193.853516 0)"/>
     <use xlink:href="#DejaVuSerif-72" transform="translate(1253.472656 0)"/>
     <use xlink:href="#DejaVuSerif-6b" transform="translate(1301.275391 0)"/>
     <use xlink:href="#DejaVuSerif-73" transform="translate(1361.871094 0)"/>
     <use xlink:href="#DejaVuSerif-20" transform="translate(1413.189453 0)"/>
     <use xlink:href="#DejaVuSerif-28" transform="translate(1444.976562 0)"/>
     <use xlink:href="#DejaVuSerif-33" transform="translate(1483.990234 0)"/>
     <use xlink:href="#DejaVuSerif-20" transform="translate(1547.613281 0)"/>
     <use xlink:href="#DejaVuSerif-75" transform="translate(1579.400391 0)"/>
     <use xlink:href="#DejaVuSerif-73" transform="translate(1643.804688 0)"/>
     <use xlink:href="#DejaVuSerif-65" transform="translate(1695.123047 0)"/>
     <use xlink:href="#DejaVuSerif-72" transform="translate(1754.302734 0)"/>
     <use xlink:href="#DejaVuSerif-73" transform="translate(1802.105469 0)"/>
     <use xlink:href="#DejaVuSerif-29" transform="translate(1853.423828 0)"/>
    </g>
   </g>
   <g id="PathCollection_1">
    <defs>
     <path id="mc3460a5b7b" d="M 0 3.674235 
C 0.974418 3.674235 1.909058 3.287094 2.598076 2.598076 
C 3.287094 1.909058 3.674235 0.974418 3.674235 0 
C 3.674235 -0.974418 3.287094 -1.909058 2.598076 -2.598076 
C 1.909058 -3.287094 0.974418 -3.674235 0 -3.674235 
C -0.974418 -3.674235 -1.909058 -3.287094 -2.598076 -2.598076 
C -3.287094 -1.909058 -3.674235 -0.974418 -3.674235 0 
C -3.674235 0.974418 -3.287094 1.909058 -2.598076 2.598076 
C -1.909058 3.287094 -0.974418 3.674235 0 3.674235 
z
" style="stroke: #1f77b4"/>
    </defs>
    <g clip-path="url(#p96bb3b2886)">
     <use xlink:href="#mc3460a5b7b" x="72.853492" y="103.984841" style="fill: #1f77b4; stroke: #1f77b4"/>
     <use xlink:href="#mc3460a5b7b" x="167.621731" y="143.977888" style="fill: #1f77b4; stroke: #1f77b4"/>
     <use xlink:href="#mc3460a5b7b" x="262.389971" y="192.413326" style="fill: #1f77b4; stroke: #1f77b4"/>
     <use xlink:href="#mc3460a5b7b" x="357.158211" y="241.925185" style="fill: #1f77b4; stroke: #1f77b4"/>
     <use xlink:href="#mc3460a5b7b" x="451.926451" y="296.613492" style="fill: #1f77b4; stroke: #1f77b4"/>
    </g>
   </g>
   <g id="PathCollection_2">
    <path d="M 546.69469 363.448799 
C 547.704554 363.448799 548.673192 363.047576 549.387273 362.333495 
C 550.101354 361.619414 550.502577 360.650776 550.502577 359.640913 
C 550.502577 358.631049 550.101354 357.662411 549.387273 356.94833 
C 548.673192 356.234249 547.704554 355.833026 546.69469 355.833026 
C 545.684827 355.833026 544.716189 356.234249 544.002108 356.94833 
C 543.288027 357.662411 542.886804 358.631049 542.886804 359.640913 
C 542.886804 360.650776 543.288027 361.619414 544.002108 362.333495 
C 544.716189 363.047576 545.684827 363.448799 546.69469 363.448799 
L 546.69469 363.448799 
z
" clip-path="url(#p96bb3b2886)" style="fill: none; stroke: #1f77b4; stroke-width: 1.5"/>
   </g>
   <g id="PathCollection_3">
    <defs>
     <path id="m0bdc4b138d" d="M -3.674235 -0 
L 3.674235 3.674235 
L 3.674235 -3.674235 
z
" style="stroke: #7f7f7f"/>
    </defs>
    <g clip-path="url(#p96bb3b2886)">
     <use xlink:href="#m0bdc4b138d" x="72.853492" y="40.668514" style="fill: #7f7f7f; stroke: #7f7f7f"/>
     <use xlink:href="#m0bdc4b138d" x="167.621731" y="63.055817" style="fill: #7f7f7f; stroke: #7f7f7f"/>
     <use xlink:href="#m0bdc4b138d" x="262.389971" y="92.752352" style="fill: #7f7f7f; stroke: #7f7f7f"/>
     <use xlink:href="#m0bdc4b138d" x="357.158211" y="129.252351" style="fill: #7f7f7f; stroke: #7f7f7f"/>
     <use xlink:href="#m0bdc4b138d" x="451.926451" y="164.793585" style="fill: #7f7f7f; stroke: #7f7f7f"/>
     <use xlink:href="#m0bdc4b138d" x="546.69469" y="215.747284" style="fill: #7f7f7f; stroke: #7f7f7f"/>
    </g>
   </g>
   <g id="PathCollection_4">
    <defs>
     <path id="ma1569663a2" d="M 3.674235 0 
L -3.674235 -3.674235 
L -3.674235 3.674235 
z
" style="stroke: #bcbd22"/>
    </defs>
    <g clip-path="url(#p96bb3b2886)">
     <use xlink:href="#ma1569663a2" x="72.853492" y="75.460471" style="fill: #bcbd22; stroke: #bcbd22"/>
     <use xlink:href="#ma1569663a2" x="167.621731" y="105.684188" style="fill: #bcbd22; stroke: #bcbd22"/>
     <use xlink:href="#ma1569663a2" x="262.389971" y="147.308965" style="fill: #bcbd22; stroke: #bcbd22"/>
     <use xlink:href="#ma1569663a2" x="357.158211" y="193.515334" style="fill: #bcbd22; stroke: #bcbd22"/>
     <use xlink:href="#ma1569663a2" x="451.926451" y="238.485987" style="fill: #bcbd22; stroke: #bcbd22"/>
     <use xlink:href="#ma1569663a2" x="546.69469" y="287.758751" style="fill: #bcbd22; stroke: #bcbd22"/>
    </g>
   </g>
   <g id="PathCollection_5">
    <defs>
     <path id="m3de1017b12" d="M 0 -3.674235 
L -0.824917 -1.135401 
L -3.494405 -1.135401 
L -1.334744 0.433685 
L -2.159661 2.972518 
L -0 1.403433 
L 2.159661 2.972518 
L 1.334744 0.433685 
L 3.494405 -1.135401 
L 0.824917 -1.135401 
z
" style="stroke: #17becf"/>
    </defs>
    <g clip-path="url(#p96bb3b2886)">
     <use xlink:href="#m3de1017b12" x="72.853492" y="145.878509" style="fill: #17becf; stroke: #17becf"/>
     <use xlink:href="#m3de1017b12" x="167.621731" y="198.348841" style="fill: #17becf; stroke: #17becf"/>
     <use xlink:href="#m3de1017b12" x="262.389971" y="261.574534" style="fill: #17becf; stroke: #17becf"/>
    </g>
   </g>
   <g id="PathCollection_6">
    <path d="M 357.158211 332.606708 
L 356.303287 335.237893 
L 353.536696 335.237893 
L 355.774915 336.864055 
L 354.919991 339.49524 
L 357.158211 337.869078 
L 359.39643 339.49524 
L 358.541507 336.864055 
L 360.779726 335.237893 
L 358.013135 335.237893 
L 357.158211 332.606708 
z
" clip-path="url(#p96bb3b2886)" style="fill: none; stroke: #17becf; stroke-width: 1.5"/>
    <path d="M 451.926451 388.671537 
L 451.071527 391.302722 
L 448.304935 391.302722 
L 450.543155 392.928883 
L 449.688231 395.560068 
L 451.926451 393.933906 
L 454.16467 395.560068 
L 453.309746 392.928883 
L 455.547966 391.302722 
L 452.781374 391.302722 
L 451.926451 388.671537 
z
" clip-path="url(#p96bb3b2886)" style="fill: none; stroke: #17becf; stroke-width: 1.5"/>
   </g>
   <g id="legend_1">
    <g id="patch_7">
     <path d="M 581.833308 242.801781 
L 813.892605 242.801781 
Q 815.592605 242.801781 815.592605 241.101781 
L 815.592605 192.046156 
Q 815.592605 190.346156 813.892605 190.346156 
L 581.833308 190.346156 
Q 580.133308 190.346156 580.133308 192.046156 
L 580.133308 241.101781 
Q 580.133308 242.801781 581.833308 242.801781 
z
" style="fill: #ffffff; opacity: 0.8; stroke: #cccccc; stroke-linejoin: miter"/>
    </g>
    <g id="line2d_71">
     <path d="M 583.533308 197.229828 
L 592.033308 197.229828 
L 600.533308 197.229828 
" style="fill: none; stroke: #1f77b4; stroke-width: 2; stroke-linecap: square"/>
    </g>
    <g id="text_16">
     <!-- UPAIR Main (d=256, L=4, r=2) -->
     <g transform="translate(607.333308 200.204828) scale(0.085 -0.085)">
      <defs>
       <path id="DejaVuSerif-3d" d="M 678 2894 
L 4684 2894 
L 4684 2394 
L 678 2394 
L 678 2894 
z
M 678 1619 
L 4684 1619 
L 4684 1119 
L 678 1119 
L 678 1619 
z
" transform="scale(0.015625)"/>
       <path id="DejaVuSerif-36" d="M 2094 219 
Q 2534 219 2771 542 
Q 3009 866 3009 1472 
Q 3009 2078 2771 2401 
Q 2534 2725 2094 2725 
Q 1647 2725 1412 2412 
Q 1178 2100 1178 1509 
Q 1178 888 1415 553 
Q 1653 219 2094 219 
z
M 1075 2569 
Q 1288 2803 1556 2918 
Q 1825 3034 2163 3034 
Q 2859 3034 3264 2615 
Q 3669 2197 3669 1472 
Q 3669 763 3233 336 
Q 2797 -91 2069 -91 
Q 1278 -91 853 498 
Q 428 1088 428 2181 
Q 428 3406 931 4078 
Q 1434 4750 2350 4750 
Q 2597 4750 2869 4703 
Q 3141 4656 3425 4563 
L 3425 3794 
L 3072 3794 
Q 3034 4109 2831 4275 
Q 2628 4441 2284 4441 
Q 1678 4441 1381 3981 
Q 1084 3522 1075 2569 
z
" transform="scale(0.015625)"/>
       <path id="DejaVuSerif-2c" d="M 231 -622 
Q 525 -406 662 -114 
Q 800 178 800 594 
L 800 709 
L 1416 709 
Q 1391 175 1164 -208 
Q 938 -591 481 -872 
L 231 -622 
z
" transform="scale(0.015625)"/>
      </defs>
      <use xlink:href="#DejaVuSerif-55"/>
      <use xlink:href="#DejaVuSerif-50" transform="translate(84.277344 0)"/>
      <use xlink:href="#DejaVuSerif-41" transform="translate(142.4375 0)"/>
      <use xlink:href="#DejaVuSerif-49" transform="translate(214.654297 0)"/>
      <use xlink:href="#DejaVuSerif-52" transform="translate(254.15625 0)"/>
      <use xlink:href="#DejaVuSerif-20" transform="translate(329.449219 0)"/>
      <use xlink:href="#DejaVuSerif-4d" transform="translate(361.236328 0)"/>
      <use xlink:href="#DejaVuSerif-61" transform="translate(463.628906 0)"/>
      <use xlink:href="#DejaVuSerif-69" transform="translate(523.248047 0)"/>
      <use xlink:href="#DejaVuSerif-6e" transform="translate(555.230469 0)"/>
      <use xlink:href="#DejaVuSerif-20" transform="translate(619.634766 0)"/>
      <use xlink:href="#DejaVuSerif-28" transform="translate(651.421875 0)"/>
      <use xlink:href="#DejaVuSerif-64" transform="translate(690.435547 0)"/>
      <use xlink:href="#DejaVuSerif-3d" transform="translate(754.449219 0)"/>
      <use xlink:href="#DejaVuSerif-32" transform="translate(838.238281 0)"/>
      <use xlink:href="#DejaVuSerif-35" transform="translate(901.861328 0)"/>
      <use xlink:href="#DejaVuSerif-36" transform="translate(965.484375 0)"/>
      <use xlink:href="#DejaVuSerif-2c" transform="translate(1029.107422 0)"/>
      <use xlink:href="#DejaVuSerif-20" transform="translate(1060.894531 0)"/>
      <use xlink:href="#DejaVuSerif-4c" transform="translate(1092.681641 0)"/>
      <use xlink:href="#DejaVuSerif-3d" transform="translate(1159.087891 0)"/>
      <use xlink:href="#DejaVuSerif-34" transform="translate(1242.876953 0)"/>
      <use xlink:href="#DejaVuSerif-2c" transform="translate(1306.5 0)"/>
      <use xlink:href="#DejaVuSerif-20" transform="translate(1338.287109 0)"/>
      <use xlink:href="#DejaVuSerif-72" transform="translate(1370.074219 0)"/>
      <use xlink:href="#DejaVuSerif-3d" transform="translate(1417.876953 0)"/>
      <use xlink:href="#DejaVuSerif-32" transform="translate(1501.666016 0)"/>
      <use xlink:href="#DejaVuSerif-29" transform="translate(1565.289062 0)"/>
     </g>
    </g>
    <g id="line2d_72">
     <path d="M 583.533308 209.706234 
L 592.033308 209.706234 
L 600.533308 209.706234 
" style="fill: none; stroke-dasharray: 7.4,3.2; stroke-dashoffset: 0; stroke: #7f7f7f; stroke-width: 2"/>
    </g>
    <g id="text_17">
     <!-- LS estimator + LMMSE detector -->
     <g transform="translate(607.333308 212.681234) scale(0.085 -0.085)">
      <defs>
       <path id="DejaVuSerif-53" d="M 594 225 
L 594 1288 
L 953 1284 
Q 969 753 1261 498 
Q 1553 244 2150 244 
Q 2706 244 2998 464 
Q 3291 684 3291 1106 
Q 3291 1444 3114 1625 
Q 2938 1806 2369 1978 
L 1753 2163 
Q 1084 2366 811 2669 
Q 538 2972 538 3500 
Q 538 4094 959 4422 
Q 1381 4750 2144 4750 
Q 2469 4750 2856 4679 
Q 3244 4609 3681 4475 
L 3681 3481 
L 3328 3481 
Q 3275 3975 2998 4195 
Q 2722 4416 2156 4416 
Q 1663 4416 1405 4214 
Q 1147 4013 1147 3628 
Q 1147 3294 1340 3103 
Q 1534 2913 2163 2725 
L 2741 2553 
Q 3375 2363 3645 2067 
Q 3916 1772 3916 1275 
Q 3916 597 3481 253 
Q 3047 -91 2188 -91 
Q 1803 -91 1404 -12 
Q 1006 66 594 225 
z
" transform="scale(0.015625)"/>
       <path id="DejaVuSerif-74" d="M 691 2988 
L 184 2988 
L 184 3322 
L 691 3322 
L 691 4353 
L 1269 4353 
L 1269 3322 
L 2350 3322 
L 2350 2988 
L 1269 2988 
L 1269 878 
Q 1269 456 1350 337 
Q 1431 219 1650 219 
Q 1875 219 1978 351 
Q 2081 484 2088 781 
L 2522 781 
Q 2497 328 2275 118 
Q 2053 -91 1600 -91 
Q 1103 -91 897 129 
Q 691 350 691 878 
L 691 2988 
z
" transform="scale(0.015625)"/>
       <path id="DejaVuSerif-6f" d="M 1925 219 
Q 2388 219 2623 584 
Q 2859 950 2859 1663 
Q 2859 2375 2623 2739 
Q 2388 3103 1925 3103 
Q 1463 3103 1227 2739 
Q 991 2375 991 1663 
Q 991 950 1228 584 
Q 1466 219 1925 219 
z
M 1925 -91 
Q 1200 -91 759 389 
Q 319 869 319 1663 
Q 319 2456 758 2934 
Q 1197 3413 1925 3413 
Q 2653 3413 3092 2934 
Q 3531 2456 3531 1663 
Q 3531 869 3092 389 
Q 2653 -91 1925 -91 
z
" transform="scale(0.015625)"/>
       <path id="DejaVuSerif-2b" d="M 2931 4013 
L 2931 2259 
L 4684 2259 
L 4684 1753 
L 2931 1753 
L 2931 0 
L 2431 0 
L 2431 1753 
L 678 1753 
L 678 2259 
L 2431 2259 
L 2431 4013 
L 2931 4013 
z
" transform="scale(0.015625)"/>
      </defs>
      <use xlink:href="#DejaVuSerif-4c"/>
      <use xlink:href="#DejaVuSerif-53" transform="translate(66.40625 0)"/>
      <use xlink:href="#DejaVuSerif-20" transform="translate(134.912109 0)"/>
      <use xlink:href="#DejaVuSerif-65" transform="translate(166.699219 0)"/>
      <use xlink:href="#DejaVuSerif-73" transform="translate(225.878906 0)"/>
      <use xlink:href="#DejaVuSerif-74" transform="translate(277.197266 0)"/>
      <use xlink:href="#DejaVuSerif-69" transform="translate(317.382812 0)"/>
      <use xlink:href="#DejaVuSerif-6d" transform="translate(349.365234 0)"/>
      <use xlink:href="#DejaVuSerif-61" transform="translate(444.189453 0)"/>
      <use xlink:href="#DejaVuSerif-74" transform="translate(503.808594 0)"/>
      <use xlink:href="#DejaVuSerif-6f" transform="translate(543.994141 0)"/>
      <use xlink:href="#DejaVuSerif-72" transform="translate(604.199219 0)"/>
      <use xlink:href="#DejaVuSerif-20" transform="translate(652.001953 0)"/>
      <use xlink:href="#DejaVuSerif-2b" transform="translate(683.789062 0)"/>
      <use xlink:href="#DejaVuSerif-20" transform="translate(767.578125 0)"/>
      <use xlink:href="#DejaVuSerif-4c" transform="translate(799.365234 0)"/>
      <use xlink:href="#DejaVuSerif-4d" transform="translate(865.771484 0)"/>
      <use xlink:href="#DejaVuSerif-4d" transform="translate(968.164062 0)"/>
      <use xlink:href="#DejaVuSerif-53" transform="translate(1070.556641 0)"/>
      <use xlink:href="#DejaVuSerif-45" transform="translate(1139.0625 0)"/>
      <use xlink:href="#DejaVuSerif-20" transform="translate(1212.060547 0)"/>
      <use xlink:href="#DejaVuSerif-64" transform="translate(1243.847656 0)"/>
      <use xlink:href="#DejaVuSerif-65" transform="translate(1307.861328 0)"/>
      <use xlink:href="#DejaVuSerif-74" transform="translate(1367.041016 0)"/>
      <use xlink:href="#DejaVuSerif-65" transform="translate(1407.226562 0)"/>
      <use xlink:href="#DejaVuSerif-63" transform="translate(1466.40625 0)"/>
      <use xlink:href="#DejaVuSerif-74" transform="translate(1522.412109 0)"/>
      <use xlink:href="#DejaVuSerif-6f" transform="translate(1562.597656 0)"/>
      <use xlink:href="#DejaVuSerif-72" transform="translate(1622.802734 0)"/>
     </g>
    </g>
    <g id="line2d_73">
     <path d="M 583.533308 222.182641 
L 592.033308 222.182641 
L 600.533308 222.182641 
" style="fill: none; stroke-dasharray: 12.8,3.2,2,3.2; stroke-dashoffset: 0; stroke: #bcbd22; stroke-width: 2"/>
    </g>
    <g id="text_18">
     <!-- LS + 2D-LMMSE estimator + LMMSE detector -->
     <g transform="translate(607.333308 225.157641) scale(0.085 -0.085)">
      <defs>
       <path id="DejaVuSerif-44" d="M 1581 331 
L 2163 331 
Q 3072 331 3558 850 
Q 4044 1369 4044 2338 
Q 4044 3306 3559 3818 
Q 3075 4331 2163 4331 
L 1581 4331 
L 1581 331 
z
M 353 0 
L 353 331 
L 947 331 
L 947 4331 
L 353 4331 
L 353 4666 
L 2209 4666 
Q 3416 4666 4089 4050 
Q 4763 3434 4763 2338 
Q 4763 1238 4088 619 
Q 3413 0 2209 0 
L 353 0 
z
" transform="scale(0.015625)"/>
       <path id="DejaVuSerif-2d" d="M 281 1959 
L 1881 1959 
L 1881 1472 
L 281 1472 
L 281 1959 
z
" transform="scale(0.015625)"/>
      </defs>
      <use xlink:href="#DejaVuSerif-4c"/>
      <use xlink:href="#DejaVuSerif-53" transform="translate(66.40625 0)"/>
      <use xlink:href="#DejaVuSerif-20" transform="translate(134.912109 0)"/>
      <use xlink:href="#DejaVuSerif-2b" transform="translate(166.699219 0)"/>
      <use xlink:href="#DejaVuSerif-20" transform="translate(250.488281 0)"/>
      <use xlink:href="#DejaVuSerif-32" transform="translate(282.275391 0)"/>
      <use xlink:href="#DejaVuSerif-44" transform="translate(345.898438 0)"/>
      <use xlink:href="#DejaVuSerif-2d" transform="translate(427.949219 0)"/>
      <use xlink:href="#DejaVuSerif-4c" transform="translate(461.738281 0)"/>
      <use xlink:href="#DejaVuSerif-4d" transform="translate(528.144531 0)"/>
      <use xlink:href="#DejaVuSerif-4d" transform="translate(630.537109 0)"/>
      <use xlink:href="#DejaVuSerif-53" transform="translate(732.929688 0)"/>
      <use xlink:href="#DejaVuSerif-45" transform="translate(801.435547 0)"/>
      <use xlink:href="#DejaVuSerif-20" transform="translate(874.433594 0)"/>
      <use xlink:href="#DejaVuSerif-65" transform="translate(906.220703 0)"/>
      <use xlink:href="#DejaVuSerif-73" transform="translate(965.400391 0)"/>
      <use xlink:href="#DejaVuSerif-74" transform="translate(1016.71875 0)"/>
      <use xlink:href="#DejaVuSerif-69" transform="translate(1056.904297 0)"/>
      <use xlink:href="#DejaVuSerif-6d" transform="translate(1088.886719 0)"/>
      <use xlink:href="#DejaVuSerif-61" transform="translate(1183.710938 0)"/>
      <use xlink:href="#DejaVuSerif-74" transform="translate(1243.330078 0)"/>
      <use xlink:href="#DejaVuSerif-6f" transform="translate(1283.515625 0)"/>
      <use xlink:href="#DejaVuSerif-72" transform="translate(1343.720703 0)"/>
      <use xlink:href="#DejaVuSerif-20" transform="translate(1391.523438 0)"/>
      <use xlink:href="#DejaVuSerif-2b" transform="translate(1423.310547 0)"/>
      <use xlink:href="#DejaVuSerif-20" transform="translate(1507.099609 0)"/>
      <use xlink:href="#DejaVuSerif-4c" transform="translate(1538.886719 0)"/>
      <use xlink:href="#DejaVuSerif-4d" transform="translate(1605.292969 0)"/>
      <use xlink:href="#DejaVuSerif-4d" transform="translate(1707.685547 0)"/>
      <use xlink:href="#DejaVuSerif-53" transform="translate(1810.078125 0)"/>
      <use xlink:href="#DejaVuSerif-45" transform="translate(1878.583984 0)"/>
      <use xlink:href="#DejaVuSerif-20" transform="translate(1951.582031 0)"/>
      <use xlink:href="#DejaVuSerif-64" transform="translate(1983.369141 0)"/>
      <use xlink:href="#DejaVuSerif-65" transform="translate(2047.382812 0)"/>
      <use xlink:href="#DejaVuSerif-74" transform="translate(2106.5625 0)"/>
      <use xlink:href="#DejaVuSerif-65" transform="translate(2146.748047 0)"/>
      <use xlink:href="#DejaVuSerif-63" transform="translate(2205.927734 0)"/>
      <use xlink:href="#DejaVuSerif-74" transform="translate(2261.933594 0)"/>
      <use xlink:href="#DejaVuSerif-6f" transform="translate(2302.119141 0)"/>
      <use xlink:href="#DejaVuSerif-72" transform="translate(2362.324219 0)"/>
     </g>
    </g>
    <g id="line2d_74">
     <path d="M 583.533308 234.659047 
L 592.033308 234.659047 
L 600.533308 234.659047 
" style="fill: none; stroke-dasharray: 2,3.3; stroke-dashoffset: 0; stroke: #17becf; stroke-width: 2"/>
    </g>
    <g id="text_19">
     <!-- Perfect CSI + LMMSE detector -->
     <g transform="translate(607.333308 237.634047) scale(0.085 -0.085)">
      <defs>
       <path id="DejaVuSerif-66" d="M 2753 4078 
L 2450 4078 
Q 2447 4313 2317 4434 
Q 2188 4556 1941 4556 
Q 1619 4556 1487 4379 
Q 1356 4203 1356 3750 
L 1356 3322 
L 2284 3322 
L 2284 2988 
L 1356 2988 
L 1356 331 
L 2094 331 
L 2094 0 
L 231 0 
L 231 331 
L 781 331 
L 781 2988 
L 231 2988 
L 231 3322 
L 781 3322 
L 781 3738 
Q 781 4294 1070 4578 
Q 1359 4863 1919 4863 
Q 2128 4863 2337 4825 
Q 2547 4788 2753 4709 
L 2753 4078 
z
" transform="scale(0.015625)"/>
       <path id="DejaVuSerif-43" d="M 4513 1234 
Q 4306 581 3820 245 
Q 3334 -91 2591 -91 
Q 2134 -91 1743 65 
Q 1353 222 1050 525 
Q 700 875 529 1320 
Q 359 1766 359 2328 
Q 359 3416 987 4083 
Q 1616 4750 2644 4750 
Q 3025 4750 3456 4650 
Q 3888 4550 4384 4347 
L 4384 3272 
L 4031 3272 
Q 3916 3859 3567 4137 
Q 3219 4416 2591 4416 
Q 1844 4416 1459 3886 
Q 1075 3356 1075 2328 
Q 1075 1303 1459 773 
Q 1844 244 2591 244 
Q 3113 244 3450 492 
Q 3788 741 3938 1234 
L 4513 1234 
z
" transform="scale(0.015625)"/>
      </defs>
      <use xlink:href="#DejaVuSerif-50"/>
      <use xlink:href="#DejaVuSerif-65" transform="translate(62.785156 0)"/>
      <use xlink:href="#DejaVuSerif-72" transform="translate(121.964844 0)"/>
      <use xlink:href="#DejaVuSerif-66" transform="translate(169.767578 0)"/>
      <use xlink:href="#DejaVuSerif-65" transform="translate(206.779297 0)"/>
      <use xlink:href="#DejaVuSerif-63" transform="translate(265.958984 0)"/>
      <use xlink:href="#DejaVuSerif-74" transform="translate(321.964844 0)"/>
      <use xlink:href="#DejaVuSerif-20" transform="translate(362.150391 0)"/>
      <use xlink:href="#DejaVuSerif-43" transform="translate(393.9375 0)"/>
      <use xlink:href="#DejaVuSerif-53" transform="translate(470.451172 0)"/>
      <use xlink:href="#DejaVuSerif-49" transform="translate(538.957031 0)"/>
      <use xlink:href="#DejaVuSerif-20" transform="translate(578.458984 0)"/>
      <use xlink:href="#DejaVuSerif-2b" transform="translate(610.246094 0)"/>
      <use xlink:href="#DejaVuSerif-20" transform="translate(694.035156 0)"/>
      <use xlink:href="#DejaVuSerif-4c" transform="translate(725.822266 0)"/>
      <use xlink:href="#DejaVuSerif-4d" transform="translate(792.228516 0)"/>
      <use xlink:href="#DejaVuSerif-4d" transform="translate(894.621094 0)"/>
      <use xlink:href="#DejaVuSerif-53" transform="translate(997.013672 0)"/>
      <use xlink:href="#DejaVuSerif-45" transform="translate(1065.519531 0)"/>
      <use xlink:href="#DejaVuSerif-20" transform="translate(1138.517578 0)"/>
      <use xlink:href="#DejaVuSerif-64" transform="translate(1170.304688 0)"/>
      <use xlink:href="#DejaVuSerif-65" transform="translate(1234.318359 0)"/>
      <use xlink:href="#DejaVuSerif-74" transform="translate(1293.498047 0)"/>
      <use xlink:href="#DejaVuSerif-65" transform="translate(1333.683594 0)"/>
      <use xlink:href="#DejaVuSerif-63" transform="translate(1392.863281 0)"/>
      <use xlink:href="#DejaVuSerif-74" transform="translate(1448.869141 0)"/>
      <use xlink:href="#DejaVuSerif-6f" transform="translate(1489.054688 0)"/>
      <use xlink:href="#DejaVuSerif-72" transform="translate(1549.259766 0)"/>
     </g>
    </g>
   </g>
  </g>
 </g>
 <defs>
  <clipPath id="p96bb3b2886">
   <rect x="53.899844" y="23.077969" width="511.748495" height="386.992"/>
  </clipPath>
 </defs>
</svg>
